<svg xmlns="http://www.w3.org/2000/svg" xmlns:xlink="http://www.w3.org/1999/xlink" viewBox="0 0 500 500"><defs><style>.cls-1{fill:none;}.cls-2{fill:#fde9c7;}.cls-3{fill:#93b9ce;}.cls-4{fill:#2a3340;}.cls-5{isolation:isolate;}.cls-6{fill:url(#Japanese_Pattern._Vic_Gambero);}.cls-7{opacity:0.85;}.cls-8{fill:#fa0;mix-blend-mode:hue;}</style><pattern id="Japanese_Pattern._Vic_Gambero" data-name="Japanese Pattern. Vic Gambero" width="80.87" height="44.63" patternUnits="userSpaceOnUse" viewBox="0 0 80.87 44.63"><rect class="cls-1" width="80.87" height="44.63"/><path class="cls-2" d="M80.87.05V0H76.42l.19.26Q78.71.07,80.87.05Z"/><path class="cls-2" d="M4.45,0H0V.05c1.44,0,2.85.08,4.25.21Z"/><path class="cls-3" d="M67.22,2.21A44.87,44.87,0,0,1,76.61.26L76.42,0H65.07C65.82.71,66.54,1.44,67.22,2.21Z"/><path class="cls-3" d="M13.65,2.21c.68-.77,1.4-1.5,2.15-2.21H4.45l-.2.26A45,45,0,0,1,13.65,2.21Z"/><path class="cls-2" d="M60.74,4.89a45.51,45.51,0,0,1,6.48-2.68c-.68-.77-1.4-1.5-2.15-2.21H53.9A29.61,29.61,0,0,1,60.74,4.89Z"/><path class="cls-2" d="M13.65,2.21a45.51,45.51,0,0,1,6.48,2.68A29.61,29.61,0,0,1,27,0H15.8C15.05.71,14.33,1.44,13.65,2.21Z"/><path class="cls-4" d="M20.13,4.89a44.73,44.73,0,0,1,5.81,3.56,22.84,22.84,0,0,1,29,0,44.73,44.73,0,0,1,5.81-3.56A29.61,29.61,0,0,0,53.9,0H27A29.61,29.61,0,0,0,20.13,4.89Z"/><path class="cls-2" d="M40.43,3.26A22.69,22.69,0,0,0,25.94,8.45a45.87,45.87,0,0,1,4.91,4.11,16.59,16.59,0,0,1,19.17,0,44.9,44.9,0,0,1,4.91-4.11A22.69,22.69,0,0,0,40.43,3.26Z"/><path class="cls-4" d="M40.43,9.51a16.51,16.51,0,0,0-9.58,3.05,47,47,0,0,1,4.22,4.7,10.32,10.32,0,0,1,10.73,0A46,46,0,0,1,50,12.56,16.51,16.51,0,0,0,40.43,9.51Z"/><path class="cls-2" d="M40.43,15.76a10.29,10.29,0,0,0-5.36,1.5,44.71,44.71,0,0,1,5.36,8.89,44.86,44.86,0,0,1,5.37-8.88A10.21,10.21,0,0,0,40.43,15.76Z"/><path class="cls-2" d="M49.49,27.19A44.08,44.08,0,0,1,56,29.06,29.36,29.36,0,0,1,80.87,15.14V8.62A35.88,35.88,0,0,0,49.49,27.19Z"/><path class="cls-3" d="M56,29.06a43.78,43.78,0,0,1,6,2.75A22.82,22.82,0,0,1,80.87,21.67V15.14A29.36,29.36,0,0,0,56,29.06Z"/><path class="cls-2" d="M61.94,31.81a45.81,45.81,0,0,1,5.25,3.41,16.56,16.56,0,0,1,13.68-7.3V21.67A22.82,22.82,0,0,0,61.94,31.81Z"/><path class="cls-3" d="M67.19,35.22A45,45,0,0,1,72,39.38a10.32,10.32,0,0,1,8.91-5.2V27.92A16.56,16.56,0,0,0,67.19,35.22Z"/><path class="cls-2" d="M72,39.38a44.66,44.66,0,0,1,4.46,5.25h4.45V34.18A10.32,10.32,0,0,0,72,39.38Z"/><path class="cls-4" d="M31.38,27.19a45,45,0,0,1,18.11,0A35.88,35.88,0,0,1,80.87,8.62V.05q-2.16,0-4.26.21a44.87,44.87,0,0,0-9.39,2,45.51,45.51,0,0,0-6.48,2.68A44.93,44.93,0,0,0,50,12.56a46,46,0,0,0-4.22,4.71,44.86,44.86,0,0,0-5.37,8.88,44.71,44.71,0,0,0-5.36-8.89,47,47,0,0,0-4.22-4.7,45.87,45.87,0,0,0-4.91-4.11,44.73,44.73,0,0,0-5.81-3.56,45.51,45.51,0,0,0-6.48-2.68A45,45,0,0,0,4.25.26C2.85.13,1.44.06,0,.05V8.62A35.88,35.88,0,0,1,31.38,27.19Z"/><path class="cls-2" d="M24.91,29.06a44.08,44.08,0,0,1,6.47-1.87A35.88,35.88,0,0,0,0,8.62v6.52A29.36,29.36,0,0,1,24.91,29.06Z"/><path class="cls-3" d="M18.92,31.81a44.46,44.46,0,0,1,6-2.75A29.36,29.36,0,0,0,0,15.14v6.53A22.79,22.79,0,0,1,18.92,31.81Z"/><path class="cls-2" d="M13.68,35.22a45.69,45.69,0,0,1,5.24-3.41A22.79,22.79,0,0,0,0,21.67v6.25A16.56,16.56,0,0,1,13.68,35.22Z"/><path class="cls-3" d="M8.91,39.38a45,45,0,0,1,4.77-4.16A16.56,16.56,0,0,0,0,27.92v6.26A10.32,10.32,0,0,1,8.91,39.38Z"/><path class="cls-2" d="M8.91,39.38A10.32,10.32,0,0,0,0,34.18V44.63H4.44A45.73,45.73,0,0,1,8.91,39.38Z"/><path class="cls-3" d="M40.43,34.83a35.75,35.75,0,0,1,24.64,9.8H76.42a44.28,44.28,0,0,0-9.23-9.41,45.81,45.81,0,0,0-5.25-3.41,44.53,44.53,0,0,0-12.45-4.62,45,45,0,0,0-18.11,0,44.75,44.75,0,0,0-12.46,4.62,45.69,45.69,0,0,0-5.24,3.41,45,45,0,0,0-4.77,4.16,45.73,45.73,0,0,0-4.47,5.25H15.79A35.78,35.78,0,0,1,40.43,34.83Z"/><path class="cls-2" d="M65.07,44.63a35.88,35.88,0,0,0-49.28,0H27a29.36,29.36,0,0,1,26.93,0Z"/><path class="cls-4" d="M40.43,41.36A29.16,29.16,0,0,0,27,44.63H53.9A29.2,29.2,0,0,0,40.43,41.36Z"/></pattern></defs><g class="cls-5"><g id="PATTERN"><rect class="cls-6" width="500" height="500"/></g><g id="圖層_2" data-name="圖層 2"><rect class="cls-7" width="500" height="500"/><rect class="cls-8" width="500" height="500"/></g></g></svg>