<svg id="圖層_1" data-name="圖層 1" xmlns="http://www.w3.org/2000/svg" viewBox="0 0 1278.78 344.03"><defs><style>.cls-1{fill:#bc8c22;}.cls-2{fill:#fff;}</style></defs><path class="cls-1" d="M-493.85-168C-402-169.59-322.43-89.39-323,4.91S-401.6,176-492.67,176c-96.72.14-173.4-76.6-173.1-173C-665.55-91.67-588.73-168-493.85-168ZM-332.57,3.88c-.81-88.94-71.38-162.46-162-162.53C-583.81-158.8-656.15-85-656.23,3c-.07,90.62,72.2,164,162,163.55C-403.29,166.19-333.6,93-332.57,3.88Z" transform="translate(665.78 168)"/><path class="cls-1" d="M-404.54-81.09c-1.4-2.13-2.72-4.26-4.11-6.32,15.27,9.33,33.85,13.37,45.31,29.08.66-2.79-2.5-6.31,1.25-7.63s4.77,2.57,5.87,5c15.35,34,17.7,68.74,9,105.17-6.68,28.05-21.88,50.16-41.34,69.92a139.32,139.32,0,0,1-72.12,39.43c-58.9,12-109.65-4.18-149.09-49.64C-670,34.5-656.89-68.83-581.1-122.44c40.91-28.94,87.18-34.67,135.65-18.66,23.21,7.64,42.82,20.86,60.15,37.24a103,103,0,0,1,20.12,27.25c1.18,2.27,3.24,4.84-.22,6.61-3.23,1.61-3.3-2.21-4.33-3.6-19.31-27.62-43.33-50.6-75.06-62.13a137.43,137.43,0,0,0-70.35-6.39c-11.32,2-23.21,2.42-33.05,9.54,1.46,2.06,3.74,1.1,5.5.59,10.29-2.86,20.13-1.1,29.75,2.72,14.39,5.65,28.79,7.12,44.14,3.16,20.49-5.37,41.34,4,52.29,22,2.27,3.82,4.4,7.78,6.9,12.19-8.37.81-6.61-9.84-13.07-10.13l.15.14c-.74-7.2-4.26-11.6-11.9-11.9l.14.15c-8-8.89-18.36-10.65-29.52-9.18-4.85.66-9.55,2.28-15.13,3.6,3.53,3.38,7.71,7-1,7.34-13.14.59-25.92-1.1-37.75-7-12.63-6.25-30.62-2.28-39.8,9.54-4.63,6-9.48,11.68-15.72,16.09-3.6,2.5-7.27,3.82-10.21-.59-2.71-4,.08-6.83,3.31-8.81,9.55-6,13.29-17.48,24.9-24.31-37.09,8.81-91,69.18-85.56,140.2,6.46,83.94,78.95,146.15,162.89,137.48,52.88-5.43,107.3-52.29,106.64-74.69-10.14,13.37-19.68,26.07-32.24,36.06s-26.22,17-41,22.62a28.82,28.82,0,0,1-8.52,2.13c-15,.44-29.53-3.45-43.7-7.19-8.08-2.13-11.53-11.9-15.06-19.61-2.57-5.51-3.67-11.17-2.2-17.19.73-3,.73-6.68-2.5-7.2s-4.11,2.87-4.7,6.1c-2.42,14.25-8.37,19.24-22.69,20.34a69.07,69.07,0,0,0-11.38,2.35,18.28,18.28,0,0,1-7.72.74c-15.12-2.43-30.4-21.37-30.55-36.94-.07-7.13-3.23-15,1.69-20.79,7.64-9,14.62-19.53,27.32-22.62C-548.78,31.05-530.71,41-523.81,56c2.06,4.48,6.76,7.71,7.71,13.15a1.85,1.85,0,0,0,3.16.73c2.57-3,8.66-4.62,6.75-9.54-3.3-8.38.08-16.6-.14-24.75C-506.77,17.17-478.28,1-461.16,7c9.91,3.45,19.9,9.48,31.65,6,7.93-2.35,13.44,5.66,20.71,6.91l-.15-.15c-.07,1.47.74,2.06,2.13,2.13l-.14-.15c3.52,7.71,8,13.15,17,16.82,11,4.41,17.63,14.84,18.65,27.54.23,2.86-.95,6.54,2.43,7.86,5.07,2,4.85-4,5.87-5.8,14.55-27.1,18.14-56.26,13.81-86.44-1.76-12.2-4.26-24.39-11.38-35.33-4,7.12-8.15,8.45-13.15,1.1-4.33-6.46-10.5-10.35-17.77-13.22-8.15-3.23-15.72-7.64-20.79-15.2,3.16-3,4.92,1.1,7.35.73,7.2,10.29,20.05,11.09,29.45,17.63,1.69,4.41,4.92,7.2,8.66,9.55-1.68-4.34-3.08-8.82-8-10.36C-382.66-73-395.58-73.75-404.54-81.09Zm-159.37-28.57c5.87-6,11.75-12,19.39-15.87-9.33,1.4-16.53,5.73-20.35,14.77-4.92,4.62-9.91,9.18-14.83,13.8C-570.89-99.45-568.68-101.51-563.91-109.66Zm126,137.7c-1.84-2.35-2.65-3.74-3.75-4.92-5-5.07-9-13.44-17.92-4.7-2.42,2.35-4.11.37-4.41-2.42-.88-6.91-6-6.32-10.35-5.22-3.75,1-9.4.81-8.3,8,.37,2.57.07,8-6.32,4.55-6.17-3.38-7.71,2.87-9.84,6.46s-4.7,8.16.52,11.09,4.48,4.41,0,7.13c-5.36,3.23-3,8.37-1.33,12.26,1.55,3.67,4.26,7.93,9.7,5.51s5.21.44,4.7,4.48c-.73,6.39,4.63,7.34,8.89,8.37,3.89,1,8.81,2.21,10.42-3.82,1.4-5.06,3.82-5.06,6.39-1.1,3.68,5.8,7.35,1.91,10.65.08,4-2.28,9-6,6-10.65-4-6.39-2.5-6.91,4-7.94,6.24-1,5.8-7.19,5.29-12-.37-3.45-3.89-7.49-6.46-5.43-8.3,6.54-12.05-.29-17.26-4.19-10.73-8-25.34-2.94-27.91,9.4-1.32,6.47,2.2,11.17,6.32,14.54,3.45,2.87,8.51.89,11.75-1.76,4-3.23,4.4-7.78.95-12.12-1.1-1.32-2.06-2.71-.22-4.11a3.4,3.4,0,0,1,4.48.44,12,12,0,0,1,4,9.62c-.22,7.86-6.54,15.28-15.35,14.76-6.61-.36-13.73-3.37-16.38-11.16-3-8.88-1.54-17,5.44-23.28,8.08-7.34,18.36-8.67,28-2.72,5.44,3.38,9.62,5.81,16.45,3.31,3.82-1.4,8.6,1.91,11,6.39,7.42,13.88-6.46,22.32-9,33.71-1.25,5.58-7.05,9.4-13.22,10.5-3.16.59-6.76-.73-9.62.37-15.28,5.95-18.36,5.28-30.85-6.47-3.23-3.08-7.56-6.9-12.85-4.26-3.89,1.91-6.61,5.44-6.39,10.21.88,20.57,19.24,32.61,38.41,25.56a138.17,138.17,0,0,0,59.2-42.08c14.76-17.77,12.33-32.76-7.86-44.07C-429.36,15.78-434.65,17.83-437.88,28Zm-30.7,100.84c6.39,3.82,12.26,3.38,17.92,1.54,26.88-8.52,48.54-24.6,66.1-46.42C-373,69.68-374,60.36-387.36,47.72c-2.27-2.13-4.48-5.87-8-4-3.16,1.69-2.72,5.88-2.2,9,1.32,7.72.88,15.13-3.6,21.67-8.67,12.71-18.58,24.31-30.78,33.78-2.71,2.06-5.14,5.44-10.86,2.35C-428.92,96-411.52,84.59-403,64.32c-4.48,1.25-5.8,3.6-7.42,5.66-12.19,15.35-26.8,27.83-44.8,35.62-15.57,6.75-31.14,17.7-49.57,4,5.58,14.68,13.51,19.16,26.66,15.27,7.12-2.13,13.88-5.65,20.86-8.37,3.38-1.32,6.68-4.41,11.31-.59C-451.91,122.49-460.8,123.66-468.58,128.88ZM-535.42,62c3.31-4.18,8.3-7.27,3.6-12.63-4.48-5-9-5.44-14.68-2-2.65,1.61-5.66,2.2-6.91-2.13-1.83-6.54-7.05-5-11.23-4-4.63,1.18-9.85,2.79-8.23,9.7.81,3.45-.73,5.87-4,3.52-6.9-5.14-7,1.76-8.88,4.7-5.22,8.23,5.87,18.73-3.6,26.66-1,.88,1,3.3,2.35,4.85,3.6,4,6,7.93,13.51,6,6-1.47.74,11.6,9.18,11.6,1.62,0,3.16,1,4.78,1,9.18-.07,17.55-3.52,25.33-7.71,4.41-2.42,8-6.9,3.31-12.85-2.87-3.53-2.06-5.73,3-6.1,9.33-.66,7.34-7.42,6.32-13.07C-522.78,62.93-529.32,63.44-535.42,62Zm9-189c13.44,4.85,26.3,12.27,41.57,9.62C-498.91-119.72-512.13-125.6-526.46-127.07Z" transform="translate(665.78 168)"/><path class="cls-1" d="M-369.8-1.92c1.54,10.79.58,22.18,6.17,32.09,3.82-.07-.08-7.42,4.92-4.55,2.35,1.32,3,5.07.95,7.93s-5,3.67-7.49,1c-5-5.22-6.46-12-7-18.95C-373,3.81-375.9-6.84-386-14.48c-6.17-4.7-13.81-6.32-20.64-7.49-17.84-3.09-30.48-13.59-43-25.12-12.12-11.24-26.15-13.29-40.39-6.1-13.59,6.91-23.73,9.63-39.59,10.65,2.79,11.09,13.88,9.7,20.93,14.18-3.3,3.23-7.27-.08-11.24,1.1,2.72,5.07,10.07,2.5,13.3,9-10.5-2.64-10.14,3.08-11.09,10.13-3.6,25.56-32.46,38.41-50.46,29.38-3.89-2-10.65.66-12.11-6.68-.45-2.06-2.58.14-3.75,1-3.67,2.93-6.46,7.19-11.68,7.85-.36-1.1-.88-2.13-.73-2.2,10.57-6.83,12.41-14,5.51-25.92-5.14-8.89-8.67-20.42-2-31.51.88,13.29,4.92,25.56,11,37.23,6.24,12.2,20,19.39,31.5,16.6,16.45-4.11,27.18-16.3,27.25-31,.07-11.16-15.57-33.34-26.29-37.68-4.48-1.83-8.6-4.92-13.15-6.39-8.89-2.79-17.4-3.15-23.5,6.1-1.25,1.91-3.16,5.21-5.88,3.45-3.89-2.57.08-5.21,1.4-7.27,5.73-9,18.51-12.63,30.4-7.86,23,9.26,45.17,9.84,68-1.61,19-9.55,40.69-3.31,54.64,13.44,1,1.17,3.31,2.57,2,3.89-8.38,7.93,2,8.23,4.62,10.13a62.55,62.55,0,0,0,31.73,12.05c7.42.66,12.49,6.9,19.68,7.78l-.14-.14c-.22,1.61.44,2.35,2.13,2.13l-.15-.15c-.22,1.69.37,2.42,2.13,2.13l-.07-.37c-.81,5.36,3.08,8.45,5.94,12Zm-75.5-50.16c-12.78-13.74-31.43-16.31-48.18-7.64a77.31,77.31,0,0,1-31.87,8.3c-2.57.14-5.14-.74-7.79-.88-2.2-.15-4.85-1.55-7,2,16.75,3.23,32.25,2.35,46.79-6,12-6.83,24.23-6.69,36.64-1.47C-453.53-56.42-450.59-54.73-445.3-52.08Z" transform="translate(665.78 168)"/><path class="cls-1" d="M-565-79.55c-6.69,1.1-12.41,6.76-20.57,4.7,7.35-8.23,17.78-8.3,26.22-12.56,8.67-4.41,17-9.33,25.56-14,17.19-9.26,34.89-10.29,53.1-4.12-.07,4.26-4.19,2.57-5.58,5.29,8.37.74,13.44,7.71,22.76,11.09-2.64-6.9-8.07-8.3-11.75-11.38,4.12-1.32,4-1.18,24.68,14.39,8.08,6.1,16.82,11.24,24.6,17.7-12.78-2.2-21.51-12.19-33.41-16.16,6.9,8.16,15.93,13.44,25.34,17.85,12.92,6,27.32,9.55,34.44,24.16-1-9.18-1.1-9.4-16.23-20.93,8.52-1.1,23.13,11.9,22.77,20.13a5.77,5.77,0,0,1-3.75,5.28c-2.72,1-5.65.37-6.9-2.2-6.39-13.07-19.47-16.3-31-22.11-12.19-6.09-23.94-12.85-34-22.54-16.45-15.87-40.69-17.92-60.44-5.36-12.41,7.93-25.78,13.88-39.22,19.68-2.79,1.17-5.66,3.52-9.84.29,5.21-2.64,9.91-5.07,14.61-7.42,2.65-1.17,5.36-2.42,8-3.59,2.05-.37,4-1,5.21-2.87l2.79-1.1c3.46-1.69,7.2-3,10.36-5.14,12.78-8.74,26.73-13,42.3-11.46,1.32.15,3.09.81,4.33-2.05-22.91-4.78-41.2,4.26-58.31,17.33-.66.66-1.32,1.39-2,2-2.35-.66-4.19.22-5.8,1.91C-559.8-82.71-562.52-81.31-565-79.55Z" transform="translate(665.78 168)"/><path class="cls-1" d="M-530-11.69C-529.83.79-540.41,12-552.31,12.1-563,12.1-574,.21-573.9-11.4c.07-9.69,9.48-22.62,16.67-22.91C-541.58-34.9-530.2-25.42-530-11.69Zm-38,.59c.14,7.56,9,16.81,16.08,16.74,8.23,0,16.08-8.15,16-16.74-.07-9.33-6.9-16.31-16-16.31A16.27,16.27,0,0,0-568-11.1Z" transform="translate(665.78 168)"/><path class="cls-1" d="M-619.21-21.46c3.52,6.46,2.13,13.29,1.39,20.05-.36,3.38-2.57,6.1-6.75,5.51-3.75-.52-4.41-3.23-4.63-6.39-.59-11.53-1.62-23-1.54-34.52.07-8,3.52-14.91,12.78-20.86-3.53,10.8-10.58,18.14-9.7,28.5.81,9.4,4.48,18.36,2.2,30.33,7.72-8.08.81-16.89,6.32-22.69C-619.07-21.61-619.21-21.46-619.21-21.46Z" transform="translate(665.78 168)"/><path class="cls-1" d="M-613.34-56.71c6.17-1.91,11-6,15.79-10l-.14.15c4.77.81,9.76-3.45,14.54.44-24.53,7-38.78,21.59-36.06,44.58l.14-.15c-7.41-2.72-7-8.3-4.55-14,3.09-7.27,6.9-14.18,10.36-21.3Z" transform="translate(665.78 168)"/><path class="cls-1" d="M-408.87,19.74c-2.35-5.73-4.63-11.45-7.05-17.11-5.95-13.66-17.92-18-31.36-19.83-2.65-.37-5.66.74-8.3-1.39,12.33-6.17,32.31.88,40.9,14.9,4.41,7.2,7.57,15.13,10.87,22.84,1.33,3.16-1.25,2.8-3.23,2.35l.15.15L-409,19.52Z" transform="translate(665.78 168)"/><path class="cls-1" d="M-379.42-17.57c-1.33-3.6-5.22-4.7-7.86-7.49,15.93-.59,29.45,23.28,23.65,41.2C-368,10.71-362.39,2-369.8-2l.14.15c1.25-5.58-2.27-8.81-5.94-12l.14.15c-.22-1.18-.73-2.06-2.13-2.13l.15.14c0-1.39-.88-1.91-2.13-2.13Z" transform="translate(665.78 168)"/><path class="cls-1" d="M-410.34-7.28c-13.44-14.33-30.33-18.37-49.14-17C-444.27-32.77-418.72-24.25-410.34-7.28Z" transform="translate(665.78 168)"/><path class="cls-1" d="M-422.83-102.1c2,4.56,3.89,9.11,5.95,13.81-3.89,1.17-6-.66-6.76-3.09a33.54,33.54,0,0,0-13.73-18.28c-1.1-.74-3.3-1.91-1.69-3.6.81-.88,3-.37,4.63-.52l-.15-.14,11.9,11.9C-422.68-101.95-422.83-102.1-422.83-102.1Z" transform="translate(665.78 168)"/><path class="cls-1" d="M-431.64-42.68c12.41,3.59,24.09,9.25,36.28,13.36C-409.39-28.58-420.92-34.46-431.64-42.68Z" transform="translate(665.78 168)"/><path class="cls-1" d="M-587.85,27.09c-9.26,7.34-20.27,12.63-27,22.91C-612.75,38.32-602.1,29.36-587.85,27.09Z" transform="translate(665.78 168)"/><path class="cls-1" d="M-599.82,24.81C-606,31.42-614.14,35.75-618.4,44c-.81,1.54-2.5,2.27-3.9.73a3.29,3.29,0,0,1,.22-4.48C-615.91,33.48-609.67,26.57-599.82,24.81Z" transform="translate(665.78 168)"/><path class="cls-1" d="M-498.47-24.76h35.32C-473.43-20.06-489.88-20.5-498.47-24.76Z" transform="translate(665.78 168)"/><path class="cls-1" d="M-460.5-17.27c-11.24,4.77-23.43,4.62-31.95,0Z" transform="translate(665.78 168)"/><path class="cls-1" d="M-467.26-118.18c7.27-2.65,14.47-3.09,21.3,2.72h-21.23C-467.26-116.42-467.26-117.3-467.26-118.18Z" transform="translate(665.78 168)"/><path class="cls-1" d="M-597.47-66.7c-4.85-1.84-7.86,4-13.08,3,.88-5.58,5.81-6.31,9.4-8.15,1.55-.81,4.19-1.76,5.15.29.58,1.18-1,3.31-1.62,5C-597.69-66.55-597.47-66.7-597.47-66.7Z" transform="translate(665.78 168)"/><path class="cls-1" d="M-613.19-56.86c-.51-1.1-.95-2.13-1.47-3.23,1.91-.51.52,1,.88,1.54s.3,1.18.44,1.77C-613.34-56.71-613.19-56.86-613.19-56.86Z" transform="translate(665.78 168)"/><path class="cls-1" d="M-552.31,52c3.75.3,5.73.59,7.64.52,2.35-.15,3.89.51,4,3,.14,3.52-2.57,3.67-4.7,3a19.59,19.59,0,0,0-16.09,1.76c-8.22,4.78-12,11.9-9.76,21.3,1.54,6.39,6.46,9.11,12.77,10.28s8.52-3.23,11.09-7.42c2.35-3.81,1.11-7.27-1.69-9.69-3.59-3.08-7.71-2.94-11.16.81-1.61,1.76-4,2.13-4.92.22s.52-4.92,2.57-5.73c6.17-2.5,12.71-3.45,18.29,1.4s5.65,10.72,2,16.81c-5.72,9.55-18,11.75-27.1,4.92s-11.6-22.1-4.25-30.4C-567.66,56-560.31,51.18-552.31,52Z" transform="translate(665.78 168)"/><path class="cls-2" d="M-65.39,96l-.22-.89c1.18-.44,1.77-1,1.77-1.76-1.91,0-2.94-.22-2.94-.66l-2.72.66v-.22c1-1,1.54-1.69,1.54-2h-.88a37.92,37.92,0,0,1-6.75,4.26c0,.44-.37.73-1.11.88h-.66c-.29,0-.66-.29-1.1-.88v-.66c1,0,1.54-.37,1.54-1.11l-.66-.88-.88.44L-84.7,93-89,91.86c-.29,0-.44-.36-.44-1.1a1.8,1.8,0,0,0-1.32.44,1.3,1.3,0,0,0-.88-.44l-.67.44A6.28,6.28,0,0,0-95,90.76a12.72,12.72,0,0,0-3.38.22,3,3,0,0,0-1.76-.66l-1.55.44c0-.73-2.64-1.1-7.85-1.1a5.45,5.45,0,0,1-2.21.88c0-.15-.44-.66-1.32-1.54a21.71,21.71,0,0,0-2.94.22c-1,.15-2.2.29-3.38.44l-.44-1.1a68.49,68.49,0,0,1-7-.88l-1.55.22c-.14-.15-.66-.22-1.54-.22l-1.32.66c0-.44-.73-.66-2.28-.66l-2.71.44c-.15-.15-.66-.22-1.55-.22-4.18,2.57-6.46,4-6.75,4.48q0,.66-1.32.66c-1.47,0-2.28-.81-2.28-2.5-.44-1-1.76-2.35-4-3.82v-3.6a.19.19,0,0,1-.22-.22l-.66.22h-1.32c-1.18,0-1.77-1.83-1.77-5.58L-157.63,72c-.15,0-.22-.22-.22-.66s.07-.44.22-.44a7.52,7.52,0,0,1-1.1-3.38h.66a3.72,3.72,0,0,0-.22-1.54v-.37c0-.07.07-.07.22-.07-.73-4.92-3-13.37-6.76-25.34-.88-.59-1.69-2.2-2.49-4.92a1.9,1.9,0,0,1-1.32-.66c-1.77,1.76-4.63,5.87-8.52,12.34l-2.72,4-3.6,4.92v.88c0,.58.88,1.1,2.72,1.54v.44l-.44.44c3,2.42,4.48,4.41,4.48,6h.44v2l-1.77.44a22.06,22.06,0,0,1-5.14-1.77l-1.76-.66c-1.61.74-2.5,1.62-2.5,2.72l-4-.44c-3.45,5.36-5.94,8.45-7.63,9.18q0,2.2-12.34,13.88l-9.62,7-2.72,1.1V98l-.66.66c-.15,0-.22-.22-.22-.66,1-1.76,4-4.7,9-8.74l-.66-.44c0,.59-.59,1-1.76,1.1,0,.44-2.43,2.79-7.2,7a12.11,12.11,0,0,0-4.92,1.32c0-.15-.22-.37-.66-.59a3.44,3.44,0,0,0-1.55-.37v-.07l8.3-7c8.08-8.22,13.81-15,17.26-20.19.3,0,2.5-3,6.54-9-1.18-1.62-2.13-2.5-2.72-2.5l-.22-2.28c-1.62,0-3.16-1.83-4.48-5.58l-.88-.44c-1.18,2.57-2.35,4-3.38,4.48l-2,.22c-1.32-1.32-2.21-2.06-2.5-2.06l-2.72.22v-.22a1.25,1.25,0,0,1-.88.22l-2.72-1.1-2,.22-.66-1.1,1.1-1.32-.66-1.1c.15-1,.3-1.54.44-1.54l-.22-.89a1.25,1.25,0,0,0,.22-.88.39.39,0,0,1-.44-.44c0-.58,1.25-1.61,3.82-3.16,6.76-7.93,11.46-14.39,14.1-19.53.15,0,.88-1.18,2.28-3.6h-.44c-2.57,1.76-4.7,3.31-6.39,4.63a21.32,21.32,0,0,1-3.67,2.35c-.89,0-2.65,1-5.15,3.16-.73,0-2.93.88-6.53,2.71-.3.15-.44.08-.44-.22a6.67,6.67,0,0,1-2.5.66l.44.44v.44H-232c0,1.18-2,2.28-6,3.16a.39.39,0,0,0-.44-.44,1,1,0,0,1-1.1,1.1v-.44a26.69,26.69,0,0,1-4.48,2.72l-5.14,3.38c-.59,0-1.4.51-2.5,1.54-.44,0-1.39.59-2.94,1.76l-.44-1.32c.44,0,2.94-1.54,7.42-4.7.59,0,2.5-1.1,5.58-3.38.15,0,2.43-1.17,6.76-3.6l4.7-2.71v-.66c-.29,0-.44-.08-.44-.22-1.47.58-2.94,1.24-4.26,1.91s-2.28,1.17-2.72,1.46a1.46,1.46,0,0,1-1.1.44c0-.29-.07-.44-.22-.44,0-.44.81-.88,2.5-1.32l-.22-1.76,1.32-.66a3.72,3.72,0,0,1,.22,1.54,4.33,4.33,0,0,0,2.28-2.72c.14,0,.22-.14.22-.44h-.66c0,.3-.08.44-.22.44v-.66l-10.8,6c-.15.59-3.31,2.43-9.4,5.37a.2.2,0,0,1-.22.22l-1.32-.22.44.66h-1.55V38c1,0,1.55-.3,1.55-.89a1.46,1.46,0,0,1-.44-1.1h1.32l-.66.66c.73,0,1.91-1,3.6-2.93h.66v.66h.22l1.54-.88-.22-.67v-.44c.44,0,.66-.14.66-.44h.88l-.88,1.11h.44l1.76-1.11h-.88v-.66c.44,0,1.91-.81,4.48-2.49h.44l-.44-.67a15.21,15.21,0,0,0,2.5-1.76c1.47,0,3-1,4.48-2.94.73,0,2.57-1.17,5.36-3.59,3.6-2.72,6.9-5.37,9.84-8.08,6.91-5.81,12-10,15.28-12.56a32.22,32.22,0,0,0,5.8-5.36c-1.47-.44-2.28-.81-2.28-1.1l-.66.44c-2.86,0-4.26-.66-4.26-2l-1.54.22a3.82,3.82,0,0,1-2.79-1,3.87,3.87,0,0,1-1-2.8c-1.17-1.61-2.2-2.49-2.94-2.49v-.3l-.44.22-1.54-.22-15.94,9-1.32-.22v-.66c.3-.73,2.79-2.79,7.42-6l12.34-11.9,3.6-3.16L-210-30c-1,.88-2.65,2.13-4.85,3.67a16.48,16.48,0,0,0-4.11,3.68c-7.35,5.65-11.68,8.52-13,8.52-.15,0-.22-.08-.22-.23a3.71,3.71,0,0,1-1.54.23v-.23a22.3,22.3,0,0,1,3.23-3c1.39-1.1,2.93-2.42,4.62-3.89,2.06-2.13,4-4.18,5.73-6.17s2.87-3.3,3.45-3.89c-4.62-1.91-7.49-2.94-8.52-2.94-.73,0-1.1-.07-1.1-.22l-1.32.22q-2,.23-2-.66a11.74,11.74,0,0,1,.66-3.6v-1.32h-1.32c-3,1.47-5.14,2.2-6.54,2.2-.44,0-.66-.14-.66-.44v-.88l7.2-6c0-.29.95-2,2.93-5.14,1.18,0,2-1.62,2.5-4.92A10.44,10.44,0,0,1-221-56.78l2.5.66,1.32-.66,1.76.44,9.18-4.26,13-6.25.22-9.62-.22-2c0-1,.08-1.54.22-1.54l-.22-.88v-3.82l-.44-1.77h.44c-.88-5.5-1.83-9.25-2.94-11.23-.44-.59-.88-1.25-1.32-1.91s-1-1.4-1.54-2.13l-.22-2.5h1.32L-193-100l-.22-1.76-.22-.44c0-.74.74-1.25,2.28-1.54v-.44c2.42,0,5.58,2.27,9.62,6.75,0,.59.51,1.4,1.54,2.5l4.7,6.54c0,.44.37.88,1.1,1.32v3.82a12.54,12.54,0,0,0-3.6,9.18l.89.22,1.76-.22,3.38,2h1.32c0,.88,1.54,1.69,4.7,2.5,0,.58,1.47,1.54,4.48,2.93a2.59,2.59,0,0,0,.44,1.77c.29,1-.37,1.91-1.91,2.57A20,20,0,0,1-169.38-61l-6,1.76a3.75,3.75,0,0,0-1.54-.22c0,.29-1,1.47-2.94,3.6l-.44,3.38.22.22a91.93,91.93,0,0,0-.44,11.45l-.22,3.38c.58-.29,3.3-3.52,8.08-9.62l-.22-.88a8.31,8.31,0,0,1,.66-1.1q.44-.66.66-.66a2.86,2.86,0,0,1,1.69.88A8.83,8.83,0,0,1-168-46.36c.58,0,.88.44.88,1.33h2l1.54-1.77A14.35,14.35,0,0,1-159.76-45c1.76,0,2.94,1.47,3.38,4.48,0,2.42-1.69,3.82-5.14,4.26-3,3-4.48,4.77-4.48,5.36a9.23,9.23,0,0,0,2.13,2.57,1.93,1.93,0,0,0,2.35.36,1.21,1.21,0,0,1,1.54.23.88.88,0,0,1,.88-.45l.88.45a1.43,1.43,0,0,1,1.33-.89l.44,1.55c3,0,4.48.66,4.48,2.05,0,.74.8,2.13,2.49,4.26.59,2.72,1.47,4,2.72,4,3,0,6.76-1.47,11.24-4.48,6.75-3.16,10.65-5.14,11.9-6A5.25,5.25,0,0,0-120.25-29c3.9-1,5.81-2.13,5.81-3.16l1.1.22v-.22c-.44,0-.66-.15-.66-.44h.66a1.26,1.26,0,0,0,.88.44c1.91-1.32,5.65-3,11.23-4.92l3.82-3.16,3.82-3.82c.88,0,2.65.81,5.14,2.5a13,13,0,0,0,2.5.44c0,.44,1.1.81,3.38,1.1,4,3,6,5.51,6,7.64C-77-28.8-79-27-82.35-27a18.88,18.88,0,0,0-4.26.66l-.66-.44-1.32.66-1.84-.22c-1.91.15-4.55,1.18-7.86,3.16l-2.64-.22c-.3,0-2.35,1.17-6,3.6a10.44,10.44,0,0,1-3.6.66l.22-.66h-.22c-.59.58-4,2.71-10.06,6.24a2.43,2.43,0,0,0-.89,1.54l.45,1.76h-.22A1.84,1.84,0,0,1-120.83-9l.44-.22c0-.74.58-1.69,1.76-2.94v-.22h.88c2.86,1,4.55,2.57,5.14,4.48.74.73,1.54,3.23,2.5,7.42,0,.58-1.47,2.42-4.48,5.36l-12.56,16.37v.45h.44a143.85,143.85,0,0,1,21.3-10.51,30.73,30.73,0,0,0,7.86-3.16c0,.15.14.23.44.23a24.22,24.22,0,0,1,2.79-1.47c1.39-.66,3-1.47,4.85-2.35A17,17,0,0,1-85,1.31c.58.29.88.51.88.66a17.3,17.3,0,0,0-5.36,5.36c-4.34,2.86-6.83,4.26-7.42,4.26v.22h.66a33,33,0,0,1,7.86-2.2l5.14-2.94c4.62-3,7.34-4.48,8.08-4.48,0-2.2-.44-3.67-1.33-4.26,0-1.32,1.11-2,3.38-2,0,.44,2.13,1,6.47,1.76a5.07,5.07,0,0,0,2.93-.66c2.13.44,4.26,2.28,6.54,5.36,4.63,4.33,7,7.64,7,9.84a5.82,5.82,0,0,1-2.94,1.1v2.06l-.66.88A124.26,124.26,0,0,1-56.5,45.23c-.29,0-.59.88-.88,2.71l.44.44a.64.64,0,0,1,.22.45l-2.5,5.8v.44l.66.44c0-.59.22-.88.67-.88,0,.14-.08.44-.15.88a12.43,12.43,0,0,0-.15,2h-.66L-59.07,56h-.22l.22,2.2h.66v1.32h-.44L-59.8,59a6.21,6.21,0,0,1-.88,2.28,1.26,1.26,0,0,1,.88.22v-.88h1.32v.88c0,.44-.59.66-1.84.66a2.3,2.3,0,0,1,.52,1.54l-.44-.44-.44.66.66.44c0-.44.29-.66.88-.66l-.66,2.65a.86.86,0,0,1,.66.88l-.88,1.1.22.74-.88,6.75A23.23,23.23,0,0,1-60,81.43l.44,1.11.22.88a72.78,72.78,0,0,0-2.94,8.74,4.13,4.13,0,0,1,.88,2.71,5.77,5.77,0,0,1-4,2.28V96Zm-170.38-108c0-1,.66-1.54,2-1.54h.66v1.1a3.63,3.63,0,0,0-2,.44Zm4.7,38.34a.39.39,0,0,1-.44-.44h1.32v-.22a2.41,2.41,0,0,1-.88-1.54l-.88.22.44.88c0,.73-.59,1.1-1.76,1.1,0,.29.44.44,1.32.44C-231.36,26.72-231.07,26.57-231.07,26.28Zm1.76,1.32a.78.78,0,0,0-.88.88h.88Zm24-48.18-1.1-.88c0,.59-.52.88-1.55.88v.66l2.5.22Zm11.53,69.26c.51-.74,1.1-1.47,1.69-2.28.44-3.16.95-4.7,1.54-4.7V39.87c.88-1.18,2-3.75,3.38-7.64l-.22.44c-3.75,1.76-8.82,5.29-15.28,10.5-2.72,1.76-4,3.53-4,5.14a31.46,31.46,0,0,0,4.26.88l.22-.88h1.54a16.09,16.09,0,0,0,6,1.54C-194.57,49.93-194.28,49.49-193.76,48.68Zm-.52-86.74-.22-.88A51.83,51.83,0,0,1-193.84-49c-.44-.44-.66-.73-.66-.88l.44-.88h-1.32c-4.92,2.27-7.86,4.11-8.74,5.58a2.13,2.13,0,0,0-1.54,2,3.5,3.5,0,0,0,.88,1.32v.22a15,15,0,0,0-.88,5.81,3,3,0,0,1,.22,1.32h.66c0-.74,1.54-1.4,4.7-2a15.24,15.24,0,0,1,5.36,3.37Zm-1.61,25.12-3.38-11.46h.66q0-1.32-.66-1.32c-.88,0-2.79,1-5.58,2.94l.22.44c2,0,4.7,2.86,7.86,8.52,0,1,.14,1.54.44,1.54Zm-6.69,88.13h-1.32c0,.59-.22.88-.66.88v.66C-204.34,76.73-203.68,76.22-202.58,75.19Zm5.81-9H-197c-1.62,1.61-2.72,2.49-3.16,2.49a4.8,4.8,0,0,1-2,4.26l-.45,1.33h.45A44.14,44.14,0,0,0-196.77,66.16ZM-202.28,71a.57.57,0,0,1,.37-.14V70c-.44,0-.67.36-.67,1.1A.22.22,0,0,0-202.28,71Zm1.91-1.9a.59.59,0,0,0-.66-.67c-.44,0-.74.3-.88.89v.44h.22Zm4.48-80.28.22,1.84h.88C-194.94-10.59-195.3-11.18-195.89-11.18Zm15.27,28.72c0,.29.44.66,1.33,1.1,0-.59.51-.95,1.54-1.1a3.63,3.63,0,0,0,2,.44,8.73,8.73,0,0,0,1.47-.66,6.19,6.19,0,0,1,1.69-.66l4.48,1.54,1.1-.44c-1.76-2.42-3.23-3.6-4.26-3.6l.66-1.1v-.44c-1,0-3.08-1.1-6-3.38-3.75-2.42-6.83-3.6-9.18-3.6a29.94,29.94,0,0,0-4.92,3.16l-4.48,2.94h-.22v.66h.88l1.1-.66a5.72,5.72,0,0,0,4.26,2.93,9.08,9.08,0,0,1,1.76,3.16,3.21,3.21,0,0,0-.22,1.32l.66-.22A16.87,16.87,0,0,1-180.62,17.54ZM-191.85-98.57a.58.58,0,0,1-.66-.66h-.22v.44l.88.66Zm3.38,65.21c0-2.27-.08-4.18-.15-5.73a8.23,8.23,0,0,1,.15-3c0-.29-.08-.44-.22-.44l.22-2.27.22-9.4c-1.77,0-2.57,1.46-2.28,4.48l.22,7.85a3.07,3.07,0,0,0,.22,1.33c-.15.14-.22.58-.22,1.32a77.34,77.34,0,0,1-1.1,14.76l1.54,1.32A33.8,33.8,0,0,0-188.47-33.36Zm1.1-41.49a12.46,12.46,0,0,0,.14-2.79c-.07-.81-.14-1.62-.14-2.35l-.22-3.38H-188l-1.11,11.9C-188-71.62-187.37-72.72-187.37-74.85Zm22.62,73.07a1.5,1.5,0,0,1,1.1-.44c.73,0,1.17.88,1.32,2.72h.22c.74-1.47,1.69-2.28,2.94-2.28q.43.66.66.66c0-.73,1.1-3,3.38-6.75V-9c0-1.91.37-3.31,1.1-4,0-.74-1.25-1.18-3.82-1.33A18.91,18.91,0,0,1-162.11-17,2.84,2.84,0,0,1-165-20.21c-2.42-1.91-4-2.94-4.7-2.94-.58,0-.88-.14-.88-.44a.39.39,0,0,0-.44.44,8.82,8.82,0,0,0-3.16-.44,30.81,30.81,0,0,0-6.24,5.8h-.66l-.22,7a2.39,2.39,0,0,1,2.5,2l-.22.88c1.91,2.13,2.93,4,2.93,5.59a5,5,0,0,1-1.1,3.59v.23l6.76-.23C-168.57,1.38-166.66.35-164.75-1.78Zm-4.48-39.88a12.8,12.8,0,0,0-5.14,4.26,8.79,8.79,0,0,0-1.77,2.21c-.88,1.32-1.61,2.57-2.27,3.6a4.85,4.85,0,0,0-2.28,4Q-178.59-29.09-169.23-41.66Zm18.43,71.1c0-.3.52-1,1.54-2h.44l-.44,1.11h.44l.67-1.55a1.76,1.76,0,0,1-.45-1.32l1.33-.22h.22a3,3,0,0,0,1.1-2.06h-.88a26.78,26.78,0,0,1-7.64.89c-.44,0-1.32-.59-2.72-1.77a9.7,9.7,0,0,1-2.49-.22v1.54c0,1.62-1,2.8-3.16,3.38-2.28,2.21-3.53,3.38-3.82,3.38v.66a6.43,6.43,0,0,1,2.72,1.1h.22c1.32-.44,2-.8,2-1.1a3.74,3.74,0,0,0,.88-.07c.29-.07.44,0,.44.07l.66-.22.66.22h.88c0,.59.81,1,2.5,1.1l1.1-.22a.58.58,0,0,0,.66.66Zm12.34-17.26h-.88v-.44L-138,12l.22-.88H-138a.39.39,0,0,1-.44.44V10.41a27.12,27.12,0,0,0,3.82-5.14l-.22-.66a8.27,8.27,0,0,0,1.32-2.42h-.22c0,.15-.15.29-.44.44V1.75a4.14,4.14,0,0,0,2.72-2.28A.39.39,0,0,0-131-1a.39.39,0,0,1-.44-.44.58.58,0,0,0,.66-.66H-131q0,.66-1.77.66c0-.59.89-1,2.72-1.32v-.88h-.66V-4.2a7.14,7.14,0,0,0,2.5-3.6l-.22-.88c-3.89,2.42-6.61,5.21-8.08,8.52-1.47,0-2.57,1.76-3.16,5.36l-3.16,4.48h-.66c-.14,0-.95-1.39-2.49-4.26a23.13,23.13,0,0,0-5.59-.88c-1,0-1.54.66-1.54,2.06a68.84,68.84,0,0,0,5.36,5.8,21.57,21.57,0,0,0,.88,3.16h-.29l.22.66.22,2.71h1.1v2.28c.44,0,.66.37.66,1.1C-143.38,20.62-141.18,17.25-138.46,12.18Zm-7.34,19.61a2,2,0,0,0,1-2.13c.44-.3,3.24-3.68,8.3-10.06l1.77-4.26h-.67c-1.61,1.17-2.49,2.13-2.49,2.71l-.66-.22c0,.88-.81,2-2.5,3.38,0,.59-.51.88-1.54.88v2c0,.58-.59.88-1.77.88v1.76c-1.17,0-3.45,2.42-6.75,7.2h.88A31.82,31.82,0,0,0-145.8,31.79Zm9.32,41.56h1.77a27,27,0,0,0,1.32-9.18,4.33,4.33,0,0,1-2.5-2v-.88c2.06,0,3.16-1,3.16-2.94.15,0,.22-1.25.15-3.82s-.15-5.36-.15-8.52h-.22a23.91,23.91,0,0,0-.88-4.48V40.6l1.54-.44v-.88h-.66a10.89,10.89,0,0,0-3.38,2.94l.44,2.27v.22A11.68,11.68,0,0,1-139.27,46c-3.6-.44-5.65-1.1-6.24-2v.44a113.92,113.92,0,0,1,3.82,14.76v.67a64,64,0,0,1,2.28,11.45h-.45c.45,1.62,1.25,2.5,2.5,2.5ZM-144.12,20c0-.74.23-1.11.67-1.11h.22v.22l-.22.89Zm4.93,8.29h-.89l4.26-6-.44-.22A7.33,7.33,0,0,0-138.53,25c-1.47,1.91-2.28,3.16-2.28,3.6l1.1.22Zm4-7.63q-.66.21-.66.66v.22h.89A1.26,1.26,0,0,1-135.16,20.7Zm2.94-4-.66-.22c-1.32,2.42-2,3.82-2,4.26A10.65,10.65,0,0,0-132.22,16.66ZM-112.68,35a21.21,21.21,0,0,0,3.6-2.28c1.32-.88,2-1.69,2-2.5a21.16,21.16,0,0,0-.22-3.37c-.14-.89-.29-1.62-.44-2.21l.44-.88h-.88a90.21,90.21,0,0,0-12.12,7.64c-1.47.73-2.27,1.32-2.27,1.76,1.91.59,2.93,1.1,2.93,1.54.3,0,1.18.89,2.72,2.72C-115.77,36.78-114.37,35.9-112.68,35Zm-7.2,36.13-.22-.66-.22-1.54.44-1.1c-.73.29-1.17,1.47-1.32,3.6l.44.88Zm5.58.22c.59-.88,2.87-1.61,6.76-2.27,0-.15.59-.37,1.76-.67.15-.14.22-.58.22-1.32l-.66-1.1c.44,0,.66-.29.66-.88a5.7,5.7,0,0,0-3.82-2c-5.8,1.76-9.18,3.37-10.06,4.7l.22.66a8.3,8.3,0,0,1-.66,3.6h.66A13.74,13.74,0,0,1-114.3,71.37Zm-.44-19.09v.22l2.28-2a26.3,26.3,0,0,0,4.48-2h1.54l-.22-.66a1.9,1.9,0,0,0,.66-1.32l-.66-4h-.22L-117.6,51q.66,0,.66,1.32c-.44.44-.66.73-.66.88l.88-.22h.44v.66h.22Q-116.06,52.49-114.74,52.28Zm8.52,10.35a2.32,2.32,0,0,1-1.32-.44l-.22.66a4.77,4.77,0,0,0,1.54.22Zm21.08,4.26-.66-.66v-.44l2.72-.66c0,.44.07.66.22.66l-.22-.88v-.44c.88,0,1.76-1,2.71-3.16,1.18-2.13,2.13-3.16,2.72-3.16-.15-2,0-3.16.44-3.16a1.25,1.25,0,0,1-.22-.88c.44-.44.81-3,1.1-7.63a2.61,2.61,0,0,1-.22-1.11,58.52,58.52,0,0,0,.88-10.28h-.44c.74-.44,1.1-1.91,1.1-4.48a1.24,1.24,0,0,0-.44-.88,8.53,8.53,0,0,0,.66-2.42l-.66-1.55a.58.58,0,0,0,.66-.66l-.44-1.1.66-1.54a.19.19,0,0,0-.22-.22A127.77,127.77,0,0,0-74.35,8.8l-.44-3.38h-.66c0,.29-1.1,1.4-3.37,3.38a28.14,28.14,0,0,1-5.81,3.45c-3.15,1.54-6.83,3.23-11,5.07-1.33.59-2.06,1.25-2.06,2,.73.88,2.72,1.91,5.8,3.16a24.19,24.19,0,0,1,2.5,4c-1.54,1.91-2.64,8.22-3.38,18.8a13.22,13.22,0,0,1-.15,2.06,5.21,5.21,0,0,0-.07.88l.22.66c-.15,3.45-.37,5.14-.66,5.14l.44,1.32c.29,3.75.44,5.66.44,5.8s-.22.59-.22,1.33.22,1.32.66,1.32a1.8,1.8,0,0,0-.44,1.32c1.32,1.32,3.53,2.06,6.46,2.06Zm13.66-20.64c-.44,0-.66.3-.66.89v.22Q-71.48,47.36-71.48,46.25Zm4,1.55A3.74,3.74,0,0,1-68.1,46h-.44l-.44.22.44,2.2h.44C-68.1,48-67.88,47.8-67.44,47.8Zm3.6,2.49c-.59.15-.88.44-.88.89l.88.44Zm2.93,7.57q-.66.22-.66.66V59C-61.13,59-60.91,58.67-60.91,57.86Zm0,1.61h-.66v1.11Q-60.91,60.58-60.91,59.47Zm.45-3.59h-.67l.22,1.1h.67Zm.44-8.74c-.3,0-.44.22-.44.66l.44.44Z" transform="translate(665.78 168)"/><path class="cls-2" d="M171.54,61.9v.44c-2.42,2.86-3.6,4.7-3.6,5.58-.73,1.18-4.26,5.07-10.5,11.68l1.1.22a19.81,19.81,0,0,0-1.32,2.94L159,83l2.2-.44-1.1,1.1,2.28.22v.22A26,26,0,0,1,157.44,89l-.22,1.54c-.44,3.89-1.25,5.8-2.5,5.8a7.66,7.66,0,0,0-5.14,2.21l-2.28,2.27h-.44a25.89,25.89,0,0,1-5.14-.66c-5.21,0-7.86.37-7.86,1.1a3.3,3.3,0,0,1-1.32-.44l-1.1.44c-1-.14-1.54-.36-1.54-.66a.2.2,0,0,0-.22.22l-1.77-.22c-2.42-.44-3.59-.81-3.59-1.1l-.66.44h-1.11a19.4,19.4,0,0,0-4.26-1.1l-.88.66-1.32-.22c-.15,0-.37-.37-.66-1.1l-.44.44L113.45,98l-1.77.22a20.55,20.55,0,0,0-2.93-1.32l-1.55.44-.44-.88a.2.2,0,0,0-.22.22c-1.61-.3-2.49-.52-2.49-.66-.15-.3-.22-.23-.22.22-1.47,0-5.15-.89-11-2.72L89.65,93l-.44.22c-1.91-.44-2.94-.74-2.94-.88l-3.15.44-.45-.44H78.86l-1.77-.44-7.19.22v-.44a2.16,2.16,0,0,0-.81.36,1.08,1.08,0,0,1-1,.15L65.34,92q-2.42-.23-12.34,1.1c-7.78,1.47-12.33,2.64-13.66,3.38a3.86,3.86,0,0,1-1.1.44c0-.29-.07-.44-.22-.44-4.48,2.2-7.12,3.89-7.86,4.92s-3.23,2.72-7.41,4.92a3.24,3.24,0,0,1-2,.66l-.88-.22c-.73-.29-1.17-1.61-1.32-4a8.06,8.06,0,0,1-2.72-5.58c-.44-.15-.59-.29-.44-.44-.88.29-1.32,1-1.32,2.28h-.44a3.73,3.73,0,0,1-1.32-3.38,6.56,6.56,0,0,1,2-.22c0-1.47-.22-2.21-.66-2.21l-2.42.89c-1.33-.15-2.13-.52-2.28-1.11,0-.58,1.25-1.39,3.82-2.49,0-.44.36-1,1.1-1.55a15,15,0,0,1,2.94-1.76c.44-1,.95-1.54,1.54-1.54V83.93c0-.44,1.76-.81,5.36-1.1,1-.15,1.54-.66,1.54-1.54l2.5-.88a10.27,10.27,0,0,1,2.94.88l.66-.44,1.32.44a4.35,4.35,0,0,0,1.32.22c3.89-.59,6-1.32,6.24-2.21l.23-.66c-.74-.58-1.47-3.3-2.28-8.08-.3,0-.44-.36-.44-1.1h-.44a3.86,3.86,0,0,1-2.5.88l-.44-.66c0-.58.22-.88.66-.88a3.47,3.47,0,0,1,1.32.44c.3-2.2,1.25-3.74,2.94-4.48,2.86-1.47,4.26-2.35,4.26-2.49v-.45l-.88-1.1.22-1.1a8.86,8.86,0,0,1,4.26-2A26.39,26.39,0,0,1,48,53.16q-.23,0-1.32-2a4.12,4.12,0,0,1-2.72.44c-1-.59-1.47-1.25-1.32-2.06a9.39,9.39,0,0,0,1.54-3.82A2.38,2.38,0,0,1,43.53,44H41.77a3.16,3.16,0,0,0-2.21-1.1l.22-1.11a16.14,16.14,0,0,0,3.6-3.37c2.72-1,4-2.28,4-3.82L47,32.3c1.47.29,2.35.44,2.5.44,2.86-.44,4.77-1.1,5.8-2h.22l.66.66c0-.88,1-2.06,3.16-3.6A145.58,145.58,0,0,0,67,11c.44,0,.66-.14.66-.44H67c-5.36,2.87-8.67,5.58-9.84,8.3C49.77,25.76,45.59,29,44.56,28.7a4.53,4.53,0,0,1-1.76.22,17.56,17.56,0,0,1-2.72-5.8,8.13,8.13,0,0,1-1.32-4c-.59,0-.89.22-.89.66l-1.54-.22a.38.38,0,0,1-.44.44l-.66-.44a.2.2,0,0,0-.22.22l1.54.66c0,.74-.22,1.1-.66,1.1l-.44-.22v.22c.3.3.44.52.44.67h-.44v.22h.22l-.22,1.32c-1.76,1.47-3,2.2-3.6,2.05l.44.89H30.53a1.52,1.52,0,0,0,.44,1.1c-.44,0-1,.66-1.76,2h-.88a5.06,5.06,0,0,1,.22,1.54q-1.32,0-1.32.66l-.89-.88H25.9v1.1h-.66L25,33.26c.74,0,1.1.22,1.1.66a28,28,0,0,0-5.36,4.92.86.86,0,0,1,.22.66c-.73,0-1.61,1-2.71,2.94q0,.44-.45,0v.44l.45.22-.22.44h-.23q-.87,0-1.32,1.32c-.44,0-1.47,1.32-3.16,4A84.13,84.13,0,0,0,1.45,60.36c-2.13.88-3.16,1.76-3.16,2.71-2.87,3.31-4.7,4.7-5.58,4.26v-.66c1.32-1.17,2.05-1.91,2.05-2.2h-.22c0,.15-.14.22-.44.22l-.22-.44a2.66,2.66,0,0,0,1.54-1.54h-.66c0-.44.3-.74.89-.89h1.1l.66.45v-.45c-.15-.14-.22-.51-.22-1.1a1,1,0,0,0,1.1-.88c-.29-.59-.37-1-.22-1.32h-.22a14.57,14.57,0,0,0-4.48,4.7h-.22l-4.26,5.14,1.32-.88a1.26,1.26,0,0,0,.22.88c0-.59.22-.88.66-.88a.39.39,0,0,1,.44.44L-9.35,69l-.22.44h.44l1.54-1.54h.22V69A24.66,24.66,0,0,1-11,72l-.22-.66a2,2,0,0,0,1.32-1.76c-1,1.32-1.77,2-2.21,2v-.22l.44-1.1h-.66l.22.66c-.58-.15-.88,0-.88.44l.22,1.54-2,1.11V73.8l1.1-1.11V72h-.66q0,1.77-1.32,1.77a.19.19,0,0,0-.22-.22l.88-1.55-.44-.22c0,.59-.15.88-.44.88-.15-.29-.59-.44-1.32-.44.29-1.47,1.69-3.52,4.26-6h.22c.73,0,1.69-1,2.93-2.94q.66.23.66-.66l-.66-.22c0,.44-1.69,2-5.14,4.7a2.25,2.25,0,0,1-.88,1.69,13.89,13.89,0,0,1-3.16,1.91c-.44,0-2.13,1.18-4.92,3.6.3-1.62,2.94-4.41,7.86-8.3,0-.88.59-1.54,1.76-2l4.7-5.14a5.28,5.28,0,0,1,1-1.55c.52-.58,1-1.1,1.47-1.54.88-1.32,3.82-5.29,8.74-11.9,0-.44,2.42-3.67,7.2-9.62V33.4l.44.22c1-1.61,1.84-2.49,2.28-2.49a17.07,17.07,0,0,1,3.59-6,15.45,15.45,0,0,1,3.6-5.8c.74-1.76,2.72-5.43,5.8-11C31.71-6.48,37.43-19.4,41.91-30.49c1.47-2.72,2.35-4.7,2.5-6l-.66-.22c-2.13,1.46-3.31,2.35-3.6,2.49l-.66-.44c-.29.3-1,.37-2,.22l-.22-.66c1.47.15,3.89-.88,7.19-3.16h.22l-.22-1.54a9.94,9.94,0,0,1,2.94-4.26c-1.17.15-2.79,1.1-4.7,2.94a52.12,52.12,0,0,0-4.48,4.92,1.56,1.56,0,0,0-1.54,1.1l.66.88c-.44,0-.88.52-1.32,1.54h-.66l-.44-.66a5.57,5.57,0,0,0,0,2.28,16.74,16.74,0,0,0-7,4.48c0,1-1.76,2.5-5.36,4.26a1.5,1.5,0,0,1-1.1-.44,1.24,1.24,0,0,1-.44-.88c1.76-3.89,2.71-6,2.71-6.47l-2-1.76c0-.44.15-.66.44-.66-.44-3.74-1.61-5.58-3.6-5.58h-.88L17.53-39H15c-.44,0-.66-.3-.66-.88s.15-.88.44-.88c0-.74-.58-1.4-1.76-2l-2,.66-2.94-.22V-43l6.24-6c4.48-1.91,6.76-4.19,6.76-6.76a6.38,6.38,0,0,1,1.25-.66,11.18,11.18,0,0,1,3-.66l.22.88c.59,0,1.69-1,3.38-3.16a4.61,4.61,0,0,0,2.94-1.54h.44v.44a5.91,5.91,0,0,1,2.93-.88v.88a4,4,0,0,1,.89.15c.29.07.51.07.66-.15l2.2.44.88-.22V-60l.66-.22a11.13,11.13,0,0,0,2.72.66c6.61-1.61,15.86-5.21,27.83-10.79,0,.29.08.44.22.44,0-.88,2.87-2.28,8.52-4l-.44.44.22.22c.44-1.17,2.57-2.28,6.32-3.16.73-.73,4.55-2.42,11.46-4.92a21.91,21.91,0,0,1,3.82-2.49l-.45-.67V-85a5.15,5.15,0,0,0,1.55-3.15q.21,0,1.32-1.11a11.24,11.24,0,0,1-.66-3.37c0-.59,1.17-1.4,3.6-2.5.44-1.91,1.39-2.94,2.93-2.94,0-.29.52-.44,1.55-.44a53.91,53.91,0,0,0,6.24,4.92,10.19,10.19,0,0,1,2.5,2.5c1.32.14,2.35,1.54,2.93,4.26,1.33,1.17,2.28,4,2.72,8.52a8.2,8.2,0,0,1-.44,2.27,1.26,1.26,0,0,1,.22.88l-.44.89q.44,0,.66,1.32l-.22,1.32a6.4,6.4,0,0,0-1.76,4h.29v.22a5,5,0,0,0-2.27,2.72l.22,1.1c-.15,2.42-1,4.11-2.72,5.14,0,.29-1.47,3-4.48,8.08,0,1-1,3.16-2.94,6.24-.88,1.91-1.47,2.87-1.76,2.72l-1.32-1.1a67.65,67.65,0,0,0-5.37,6.24c-.88,0-2.2,1.91-4,5.8q-1.11-.43-1.11,0l.22,1.1c-.29,0-.58.22-.88.66l-.22,2.21c-.59,0-1.39.95-2.49,2.93-.15,0-.81,1.11-2,3.38l-.44.44c.59,0,3.23-2.71,7.86-8.07L105-32.48c.29-.88.59-1.32.88-1.32,1.62,0,2.65.37,2.94,1.1l-.44.67c1.32,2.42,2.86,3.81,4.48,4.26.29,2.86.51,4.62.66,5.36l-.44,1.32a7.87,7.87,0,0,1,1.1,1.76,27,27,0,0,1-3.6,7.49,4.53,4.53,0,0,1-4,2.13A65.27,65.27,0,0,1,96-7.28l-.88-.22c-1.32,0-3.23.8-5.58,2.49a56.46,56.46,0,0,1-8.3,5.8l.66,4.92c-.59,3.31-1.1,4.93-1.54,4.93a.39.39,0,0,0,.44.44l-3.16,8.74C86.93,14.75,94.06,10.56,99,7.26c0-.3-.3-1.47-.81-3.6s-1-4.19-1.25-6.24l-.44-2.94c0-.88.3-1.32.88-1.32.3.44,1.32.88,3.16,1.32,0,1.17,2.57,2.94,7.64,5.14a17.2,17.2,0,0,0,5.36,3.6,2.4,2.4,0,0,1,.22,1.1A9.35,9.35,0,0,1,118,3c0,.88-1.47,2.27-4.48,4l-.22.88L118.22,18l-.44.44c2.28,3.16,4,9.77,5.14,20a3.65,3.65,0,0,1,.44.58,1.47,1.47,0,0,1,.22.81,26.08,26.08,0,0,1-1.54,4.7v1.1c.44.15.73-.07.88-.66H124c-3,5.66-5.51,8.38-7.64,8.08-.14.74-1.46,1-4,.88,0-.44-.51-.88-1.54-1.32l-.66-.88.88-2.5c-1.47-1-2.2-2.13-2.2-3.38l.66-1.1v-.22a7.16,7.16,0,0,1-1.54-3.82c-3-3-4.85-4.48-5.58-4.48-2.87,0-4.78-1.17-5.81-3.6-.44-.44-1.76-.88-4-1.32.14-.44-.3-.88-1.33-1.32A2.37,2.37,0,0,1,91,28.63l.44-.66a5.22,5.22,0,0,1-2.2-1.1l-1.54-.66c-3.16,1.46-4.78,2.71-4.92,3.59a16,16,0,0,1,1.32,4.7c2.06,3.16,3.3,4.7,3.6,4.7,3.45-1.91,5.21-2.93,5.36-2.93l-.22.88a2,2,0,0,0-1.76,1.1c-2.28.73-3.38,1.4-3.38,2-.3.74-.74,1.54-1.25,2.5a6.06,6.06,0,0,0-.81,1.76h.44a16.92,16.92,0,0,0,3.38-2.72l-.22-.88c1.47,0,3.31-1.61,5.36-4.92a2.7,2.7,0,0,0,1.54-.66H97c1.76,0,3.52,1.47,5.14,4.48.73,0,1.1,1.18,1.1,3.6,1.17,1.18,1.76,2.13,1.76,2.72,0,1.61-2.2,3.23-6.76,4.7H98c-.73.15-1.61.37-2.71.66s-2.13.59-3.38.88a19.89,19.89,0,0,0-7,1.84c-.88-.15-1.76,5.06-2.72,15.71l-.44.66c0,1,.3,1.55.88,1.55,9.55-.44,15-.88,16.38-1.33,13.29,0,20.13-.58,20.42-1.76l1.54.22.66-.22,1.76.22c1.77-1.32,3.16-2,4-2l.89.22a7.8,7.8,0,0,0,4.92-2.28,14.32,14.32,0,0,0,3.37-.44,10.53,10.53,0,0,0,3.6,3.6c0,1.18,1.18,1.84,3.6,2,3-.73,6-1.61,9.18-2.71v.44l-2,1.54v.66a13.43,13.43,0,0,0,7.64-4.92h.66a.83.83,0,0,0-.08.81c.08.22.22.36.37.36.44,0,1.62-.8,3.6-2.49l.66.44a11.21,11.21,0,0,1-4.26,4.26c0,.29-.59.88-1.83,1.76.29,0,.44.29.44.88a.58.58,0,0,1-.66.66l-.67-.22a4.44,4.44,0,0,1-1.1,2.72h1.54c0-.59,2.36-2.2,7-4.92C164.42,68.43,166.77,65.94,171.54,61.9ZM-13.17,69.76H-14c0,.58-.44,1.1-1.32,1.54l.44.22Zm5.73-3.38c-.37.29-.66.51-.81.66h-.22v-1.1l.66-.66.88.22C-6.85,65.79-7.07,66.08-7.44,66.38Zm2.13-3.75c0,.88-.66,1.47-2.06,1.76v-.22l.67-1.1h.44A1.09,1.09,0,0,1-5.31,62.63Zm4.92-4.77H-.61l-.66.88-.22.44h.66Zm1.76-2c0-.44-.36-.67-1.1-.67,0,.3-.51,1-1.54,2v.22A3.53,3.53,0,0,0,1.37,55.88Zm1.62-2a3.32,3.32,0,0,1-1.1.66v.66c.44,0,.81-.36,1.1-1.1Zm2-1.83a2.44,2.44,0,0,1-1.83.66v.22c0,.59.14.88.44.88.58,0,1-.37,1.32-1.1v-.66Zm1.62-1.25c.14-.22.29-.52.44-.81-.59,0-1-.07-1.1-.22,0,.44-.37.66-1.1.66A.58.58,0,0,1,5,51a2.34,2.34,0,0,0-.14.59H6.37A1.45,1.45,0,0,1,6.59,50.81Zm2-2.79H7.69l-.22,1.32h.22c0-.59.22-.88.66-.88ZM29.65,28.33l-1.32-.51c-.15.88-.44,1.32-.88,1.32v.22h.66c0-.58.51-.8,1.54-.66Zm7.2-60.81H35.67c.29-.88,1-1.17,2.28-.88A4.61,4.61,0,0,1,36.85-32.48ZM36.85,75c-.3,0-.66-.37-1.11-1.1a2.06,2.06,0,0,1,1.11-1.32h.22q.66.21.66.66l-.22,1.1C37.36,74.68,37.14,75,36.85,75Zm2.42-31.43H37.73V43.1l1.54-.44Zm2.94,4.26H39.93c.29-.74,1-1,2-.66ZM53.66-41.44a9.33,9.33,0,0,1,7,4.48A18.67,18.67,0,0,0,62.4-32.7a2.42,2.42,0,0,0,.89,1.55c-.15.14-.22.51-.22,1.1,1.32.88,2,1.76,2,2.72h.66c4.63-2.87,7.34-4.26,8.08-4.26A37,37,0,0,0,83-37.4c0-1,1.32-2.35,4-3.81l.66.22c.15-1,.37-1.55.66-1.55l-.44-.66,1.32-5.58L89-49.44l1.54-3.38c0-.59-.14-1-.44-1.1l5.14-16.6c-1.91.59-6.9,3.16-14.76,7.64l-8.3,4.48L59.83-52.16A74.15,74.15,0,0,1,47.5-45v.44c.29,0,.44.07.44.22l1.32-.44,1.76.88a4,4,0,0,1,2-.66v.44L51.46-43v.44A3.3,3.3,0,0,1,53.66-41.44ZM51.17,56.32a3.47,3.47,0,0,1-1.32.44v.44C50.73,56.9,51.17,56.61,51.17,56.32ZM70.48,39.06l-.22-1.77H70c0,.45-.51.67-1.54.67a13,13,0,0,0-5.36,6.24,59.48,59.48,0,0,1-3.82,5.14l-3.6,4.48a2.82,2.82,0,0,0-1.32,1.32h.44c.59,0,5.07-2.13,13.44-6.24l1.32-5.14c0-.3-.07-.44-.22-.44ZM68.21,71.81l-2.72-.22-.22-1.54.44-3.16c0-.29-.37-.81-1.1-1.54-3.16,1.91-4.78,2.94-4.92,2.94s-.44.22-.88.66a22.9,22.9,0,0,1-2.06,1.76v.66l.22,2h-.22c-.88,0-1.54.81-2,2.5v.44a18.93,18.93,0,0,0,3.59.44c2.87-.29,4.34-.73,4.48-1.32A8.73,8.73,0,0,0,64.75,75a2.67,2.67,0,0,1,2.57.44c.15.15.45-.15.89-.88A8.2,8.2,0,0,1,68.21,71.81ZM75.4-9.12a13.84,13.84,0,0,0,4.92-2.5c1.77.15,5-3.52,9.62-11,.15.14.23.14.23,0l-.23-.44c.89.14,1.33,0,1.33-.45a.58.58,0,0,1-.66-.66c.88-1.47,1.46-2.2,1.76-2.2v-.44l-.22-.66a6.8,6.8,0,0,0,1.32-1.1l-.22-.66C93.54-31,94.06-32,94.79-32c0-1-.07-1.54-.22-1.54l.66-.66c0-.15-.22-.22-.66-.22C92.37-30.79,91.12-29,91-29v-.88l.66-.89h-.22c-1.17,1-3.08,4-5.58,8.74-1.32,1.91-2.13,2.94-2.49,2.94-.89,0-1.33-.29-1.33-.88a31.41,31.41,0,0,0,3.82-6l-.66-.66H85c-.88,2.42-2.94,5.06-6,8.08h-.22v-1.33c.73,0,1.69-1.1,2.94-3.37h-.22a144.5,144.5,0,0,0-17.92,13c-1.91.74-4.7,3.09-8.3,7L55-2.22c1.17,0,1.76.44,1.76,1.32A1.75,1.75,0,0,1,57,.21l.44.22q6.5-3.65,10.8-5.51c2.86-1.25,4.62-2.06,5.36-2.35l1.54-1.32.66.44v-.44C75.55-8.9,75.4-9,75.4-9.12Zm13,34.52c5.51-1.18,8.38-3.09,8.52-5.58l-.66-.45c0,.3-1.1,1.18-3.38,2.72a15.15,15.15,0,0,1-4.26,2.5Zm5.14-8.3c1.91-.88,2.94-1.62,2.94-2.28a10.48,10.48,0,0,1-2.94,1.54Zm.22-93.05,4-.66-.44-1.11L94-76.61Zm2.72,37.67c-.29-.14-.88.66-1.76,2.5h.66A2.81,2.81,0,0,0,96.48-38.28Zm.66,6.76h-.22c0,.44-.22.59-.66.44l-.22.44.88.22Zm-.22-8.3c-.44-.29-.66-.15-.66.44v.22Q96.92-38.93,96.92-39.82Zm25.34-19.31a.39.39,0,0,1,.44.44A.58.58,0,0,1,122-58h-.66C121.38-58.77,121.67-59.13,122.26-59.13ZM161.48,68.43l-.22.22-.59.59a5.06,5.06,0,0,1-1.25.81H159C159.05,69.54,159.86,69,161.48,68.43Z" transform="translate(665.78 168)"/><path class="cls-2" d="M345.3,109l-6.53-4.26a13.68,13.68,0,0,1-1.91-1.46c-1-.81-1.91-1.62-2.79-2.35-1-.3-1.47-.59-1.33-.89l-.44.22c-3.15-.58-4.7-1.39-4.7-2.49,0-.3-1-.88-3.15-1.76,0-.3-.44-.45-1.33-.45l.22-2-2.42-2.72h-1.1q-.22-2-.66-2l-1.54.22-1.33-3.16a1.46,1.46,0,0,0,.44-1.1h-.44c-.14.15-.51.22-1.1.22.15-.88-1.69-2.06-5.58-3.38V81a7.58,7.58,0,0,0,1.32-4.26c-.44,0-1.1-1.17-2-3.6l-6.46-16.37c-.88-.3-1.33-1.47-1.33-3.6-.14,0-.44-.59-.88-1.76l.44-1.77c-.73-.29-1.46-2.05-2.2-5.14-1-.14-1.54-.44-1.54-.88l.66-1.76-2.72-5.14a24.75,24.75,0,0,1-2.05-4.7c-1-.3-1.55-.59-1.55-.88a3.59,3.59,0,0,0-1.54-2.94c-.44,1.47-1.1,2.13-2.06,2-.73-.29-1.32-1.47-1.76-3.6.59-3.74,1.84-5.58,3.82-5.58v-.22a15.46,15.46,0,0,1-.66-5.14c-.29,0-1-1-2.28-3.16-.88.44-2.2,3.23-4,8.3A69.12,69.12,0,0,1,279.21,30c-1.33,2.86-2.13,4.55-2.43,5.14-.29,2.2-1.83,5.88-4.7,11,0,.73-.88,2.49-2.72,5.14,0,1.17-.8,2.86-2.49,4.92l-.66-.22v.66l.22,1.1a68.42,68.42,0,0,0-4.92,6.46c-.89.45-1.91,1.84-3.16,4-.3.3-1,1.11-1.91,2.35s-1.69,1.84-2.13,1.69l-.66-.22v-.22a6.94,6.94,0,0,0,1.1-2.2.58.58,0,0,1-.66-.66c1.32-1.47,2.5-2.28,3.38-2.28,1.47-1,3.67-3.82,6.53-8.3,0-.58,1-2.42,2.94-5.36v-.88l-2.5-.44c0,.59.15.88.44.88-.29.74-.66,1.1-1.1,1.1v-.22l.22-.88h-.66a2.38,2.38,0,0,1-.88,1.54l.66.88v.45c-.73,0-1.47.58-2.27,1.76v.22l.66.22-.22,1.1a1.7,1.7,0,0,0-.81-.37,1.7,1.7,0,0,1-.81-.36v.44l.22.88a2.76,2.76,0,0,0-2,2.94l.22.66h-.44c-1,0-1.84,1-2.28,3.15-.88,0-1.54.74-2,2.21-.3,0-.66.29-1.1.88l-.22.44.88-.22h.88c-.3,1.47-.88,2.2-1.76,2.2v-.88l-.67-.22a21.53,21.53,0,0,0-3.59,3.16h-.22l-.45-1.54c.45,0,1-.81,1.77-2.5l-.3-.07c0,.58-.22.88-.66.88l-.22-.66c0-.3.3-.59.88-.89l.66.23a9.75,9.75,0,0,0,2-2.5l-.88.22L250,66.6a1.51,1.51,0,0,1,.66-1.1l-.44-.22c0,.29-.3.44-.89.44.45-1.91,1.4-2.87,2.94-2.72a2.4,2.4,0,0,0-.22-1.1,9.75,9.75,0,0,1,1.54-2.72,10.84,10.84,0,0,1,2.21-4.26,5.5,5.5,0,0,0,.88-2.06H256c-2.87,6-8.3,13.81-16.38,23.58l-7.2,6.46-.88-.22c.44-.59,2.72-3.3,6.76-8.08l3.6-4c0-.44.73-1.61,2.27-3.59,0-1.91.37-2.94,1.11-2.94l-.23,1.1h.45a5.74,5.74,0,0,1,1.1-1.54h-.88q.21-1.77,1.32-1.77V62l-.44.89h.66l.44-1.77a.58.58,0,0,1-.66-.66,3.2,3.2,0,0,1,1.54-1.1l-.44-.88c0-1,1.17-2,3.6-2.94L250,55.36l.22-.22c1.17-1.61,2.35-2.57,3.37-2.72l.89-1.76a4.87,4.87,0,0,1-1.55.22L257.83,41c5.07-11.09,8.08-18.51,9-22.4,1-4.19,1.69-6.24,2-6.24l-.22-1.54L269,8.8c-.44-.15-4.85,1.91-13.22,6.32a22.93,22.93,0,0,1-2.43,1.46c-.73.37-1.39.74-2,1a.58.58,0,0,1-.66.66l.66.66a3.73,3.73,0,0,1-1.32.59,17.51,17.51,0,0,1-2.94.59c0,1.47-.59,2.13-1.76,1.76-1.62,2.13-2.8,3.09-3.38,2.94l.44.66a58.69,58.69,0,0,0-7,5.36c-.15-.14-1,.81-2.72,2.94-1.91.15-2.93.88-2.93,2.28-1.18,0-3.68.88-7.42,2.71H221c-.3,0-1-.95-2.21-2.93V33.62c0-2.27-.36-3.45-1.1-3.6-.29,0-.51-.29-.66-.88l.44-1.1a4.92,4.92,0,0,0-1.1-2.2c0-.3.07-.44.22-.44,0-.74-.73-1.55-2.28-2.5a2.72,2.72,0,0,0-.66-1.54c.15-2.43,1.25-3.45,3.38-3.16V17.1c0-1.76-.73-2.79-2.28-2.94l.44-2.2c-.58,0-.95-1.18-1.1-3.6a11.26,11.26,0,0,0,2.28-2.72V2.92a20.74,20.74,0,0,0,2.5-4c.44-.58,1.76-1.39,4-2.49s3.67-1.69,4.26-2c.73-1,2.57-1.83,5.36-2.49v-.22a5.64,5.64,0,0,1-.66-2.94,8.48,8.48,0,0,1,5.8-1.76,6.56,6.56,0,0,0,3.38,1.1c1.61-.44,2.49-.88,2.49-1.32l1.32.22c0,.73,1.11,1.32,3.38,1.76.59,0,7.35-1.4,20.2-4.26,0-.44,1.1-.73,3.38-.88l.88-2.28.22-5.36a4.54,4.54,0,0,0-.44-2.5c.29-.29.51-.44.66-.44a5.28,5.28,0,0,0-.07-.88,19.52,19.52,0,0,1-.15-2.94l.22-9.84.44-1.54-.44-1.54a29.57,29.57,0,0,0,1.54-5.8l.22-4.48,1.32-1.33c-.58-.73-1.1-1.1-1.54-1.1a3.75,3.75,0,0,1,.66-2.49c-.29-.15-.44-.59-.44-1.33,1,0,1.69-.58,2.06-1.76l-.66-.88v-.44a5.43,5.43,0,0,1,4.26-2.28c.88,1.62,3.74,3.45,8.52,5.36,0,.3.73,1,2.2,2l.66-.22a5.48,5.48,0,0,1,2.28,5.36c1.17,0,2,1,2.5,2.94.44,0,.73,1.24.88,3.81a9.92,9.92,0,0,1,1.32,2.28c.44,0,.66.88.66,2.72-.44-.3-.66.07-.66,1.1,0,.44.29.66.88.66l-.66,2.06.22,3.6c.73,0,.95.58.66,1.76-2.42,3.3-3.6,5.21-3.6,5.8l.22,1.54q-.66.22-.66.66c1,0,5.14-1.32,12.34-4v-.22l.22.22h1.54l1.32.22c6.47-3.89,10.06-5.94,11-6.31.15-1.18,1.54-2.28,4.26-3.38a1.26,1.26,0,0,0,.88.22l2.72-.88c.59-.59.88-1,.88-1.1a15.35,15.35,0,0,1-.44-3.6,9.48,9.48,0,0,0,1.54-.44h.22a26.06,26.06,0,0,0,5.58,3.6,19.11,19.11,0,0,0,3.38,6V-33c.29,0,1,.59,2.28,1.76,2.42.15,3.6.59,3.6,1.33L346-26.09l1.33.22-.22.67-1.55,2.93L346.85-20c-.15.59-.37.88-.67.88a21.86,21.86,0,0,1,.67,5.36q0,4.08-.89,5.73a2.88,2.88,0,0,1-2.71,1.69h-.88c-.74-1.17-2.43-2.42-4.92-3.6l-6,2C329-5.67,325-3.32,319.31-.75c-7.5,4.78-12,7.2-13.44,7.2l.44-2.06L305,4.17V3.73a1.85,1.85,0,0,0,1.11-1.54l.66.66H307V1.75c0-.59.36-.88,1.1-.88V.21l-3.6,1.1-.22.66-.66-.66h-.44v1.1L302.05,2c-3.16,1.47-5.14,2.28-6,2.28-.44,0-.95-.52-1.54-1.55V2.48L297.42.72V.28H297A2.35,2.35,0,0,0,294.48,2a7.63,7.63,0,0,0-4,1.1A12.62,12.62,0,0,1,288,8.06c3.3,3.6,5.8,5.59,7.64,6,1.61,2.86,5.65,6.09,12.11,9.84.44,1,1.77,2.13,4,3.38,0,.73,1.55,1.91,4.7,3.6,0,.29,1.91,2,5.81,5.14l.66.66.66-.22a4.55,4.55,0,0,1,1.54,3.6l2,.22c2.72,3.74,5.58,5.8,8.74,6.24l3.38,1.76a3.28,3.28,0,0,0,.88,1.54,2.12,2.12,0,0,0,1.54.66l3.82,1.55a6.72,6.72,0,0,1,2.5,0c0,.14,0,.29.15.36a.52.52,0,0,0,.36.15l-.44,1.32c0,1.62,1.25,2.57,3.82,2.72.74,1.18,2.13,1.91,4.26,2.2,0-.58,1-1,2.94-1.1,0-.15.15-.22.44-.22s.74,1.32,1.32,4a2.53,2.53,0,0,0-.22,1.1,5.92,5.92,0,0,0,1.55.88l2.05-.44v.44l1.76-.44c.3,0,1.55.88,3.82,2.72l1.55,1.32v2.21l3.37,1.1,1.33-.22v.22c0,.88,1.46,1.47,4.48,1.76,0,.15,1,.37,3.15.59s4.41.51,7,.81a28.36,28.36,0,0,0,4,.22,28.84,28.84,0,0,0,4.7-.45c0,.15.07.23.22.23l-.44,2c.44.15.81.3,1.1.37a2.64,2.64,0,0,1,.66.29c.15-.58.44-.88.88-.88a1.26,1.26,0,0,0,.44.88c0-.88,1.69-1.54,5.15-2a25.83,25.83,0,0,1,7.85-2.5v.44c-1.32,1.33-4.11,2.5-8.3,3.38-1.76.88-2.71,1.47-2.71,1.76L403.4,77l-.89.44v.22h.89c-.15.59-3.46,2-9.85,4.26a44.58,44.58,0,0,0-7.41,2.72c3.89.3,12.12-1.76,24.67-6.24-1.61,1.76-8.37,4.7-20.19,8.74a2.86,2.86,0,0,0-2.5,1.76A42.62,42.62,0,0,0,380.26,94,4.21,4.21,0,0,1,383,96h.88c-.73,3-2.28,4.33-4.48,4a11.59,11.59,0,0,1-7.86,2.28c-3.45.15-5.29,1-5.58,2.42l-3.38,1.11-1.54-.44a3.53,3.53,0,0,1-1.1,2l-1.54-.22-4.48.66a.19.19,0,0,1-.22-.22c-3.9,0-6.32.51-7.2,1.54ZM240.13,81.21v-.44L241,81v.44Zm.74-11.67.88.22a.78.78,0,0,1-.88.88Zm.44,10.35h.88a1,1,0,0,1-1.1,1.1Zm.88-.66c0-.29.29-.59.88-.88v.88Zm3.6-4.77c0-.44.29-.66.88-.66h.88a.87.87,0,0,1-.88.66Zm3.38-7.13.66-.22.22.22v.88C249.46,68.07,249.17,67.77,249.17,67.33Zm8.52-10.57a.39.39,0,0,0-.44-.44l-.44,1.32H257Zm12.78-10.51c0-.14-.15-.22-.44-.22l-2.72,3.38h-.66v.66a1.81,1.81,0,0,1,1.1.22A11.27,11.27,0,0,1,270.47,46.25Zm-2.72,1.55v-.88c-.74,0-1.1.29-1.1.88v.88h.22C267,48.68,267.31,48.38,267.75,47.8Zm3.82-4h-.88l-.22.88.22.66-.22.22h.22Zm.88-2.21c-.88,0-1.32.22-1.32.67v.44h.44C271.86,42.66,272.15,42.29,272.45,41.55ZM281,18.42l-.66-.22-.44.44.66.22-.22.88A8.49,8.49,0,0,0,278.54,22h-.22l.22-1.76c-.44,0-.8.88-1.1,2.71l-.88.22v.66l.44-.22h.44v.67h.22l.66-2c.74.3,1.11.59,1.11.88l-1.55,2h-.66v-.44l-1.32.88v-.88h-.22l-.88,1.54,1.1-.44v.44c-2,2.57-3.08,4.48-3.38,5.8.59,0,1.1-.88,1.54-2.72.59.15.89.44.89.88-1.18,2.87-2.13,4.26-2.72,4.26h-.66v.44h.66v.67l-.88,1.1.66.22.22.22a8.25,8.25,0,0,0,.88-2.72h1.1v.88a6.87,6.87,0,0,0-1.32,2.5h.66C278,29.29,280.53,22.75,281,18.42Zm-7,14.84c.59-1.47,1.18-2.35,1.84-2.5l.22.66a7.67,7.67,0,0,0-1.1,1.76h-1Zm7.2-17c0,.29.07.44.22.44l.22-.66v-.44l-.88-.44a.2.2,0,0,1-.22.22v-.45h-.66c0,1-.59,1.55-1.77,1.55v.66a4.83,4.83,0,0,1,1.55.22C279.94,16.44,280.45,16.07,281.19,16.22ZM279.65,18h-.89L278.25,20h.44A6.12,6.12,0,0,0,279.65,18Zm2.86-11.24c-.29,0-.44.22-.44.66v.44C282.36,7.92,282.51,7.55,282.51,6.74Zm1.18,1h-.45a2.56,2.56,0,0,0,.89-1.76l-.66-.23A3.87,3.87,0,0,1,283,7.48a1.25,1.25,0,0,1,.22.88h.45Zm24.67-33.64a14.93,14.93,0,0,0,2.28-1.32h-.44a90.35,90.35,0,0,0-15,5.8V-21l.22.66A23.43,23.43,0,0,0,308.36-25.94ZM296.24,2.78l-.66-.22-.22.44.66.44Zm1.55-3.16V.5l1.32.22C299.11,0,298.67-.38,297.79-.38Zm27.1-42.82c1.76-1.91,2.93-2.94,3.37-2.94a6,6,0,0,1-.44-2.27h-.66v.66c-.88,0-1.32-.29-1.32-.88l-1.76,1.1V-48c3.3-3.31,4.92-5.66,4.92-7.2-4.63-4.63-6.83-7.49-6.54-8.52-4-5.8-5.8-10-5.36-12.56-1.61-3.15-2.5-5.14-2.5-6l1.33-.88c0,.44.36.66,1.1.66v-1.76h1.32c.59,0,1.91.66,4,2v-.22a5.53,5.53,0,0,1-.66-2.5h1.54a38.14,38.14,0,0,1,9.4,8.52c1.47,1,2.28,1.77,2.28,2.28a4.08,4.08,0,0,1,2.72,2.5l.66.22c.14-.59.44-.88.88-.88l4,1.32a6.58,6.58,0,0,1,2.71-.88c1.91,1.91,3.68,3,5.15,3.15,4.62,1,7.19,2.21,7.63,3.38,3.9.44,5.81.88,5.81,1.32l.66-.22a18.35,18.35,0,0,1,4.48,1.91,81.72,81.72,0,0,1,7.41,4.63,23.64,23.64,0,0,0,6.47,3.6,10.56,10.56,0,0,1,1.1,4.7h-.22a4.87,4.87,0,0,1-2.72,1.1,12.89,12.89,0,0,0-5.14,3.16L371-43.42c0,.44-.37.66-1.1.66a.38.38,0,0,1-.44-.44l-.67.44h-.44l-1.1-.88a1.74,1.74,0,0,0-1.1.22,3.6,3.6,0,0,0-1.54-.44c0,.74-.59,1.4-1.76,2a5.29,5.29,0,0,0-2.94-1.76c0,.44-.3.66-.88.66-.44-.29-1-.66-1.47-1a3.2,3.2,0,0,0-1-.58c0,.73-.59,1-1.76.66q0-1.11-1.32-1.32l-.67.44a13.82,13.82,0,0,1-4.7-1.11c-.58.15-.95.15-1.1,0s-.58-.66-1.76-1a32.1,32.1,0,0,0-4.92-1l-1.76.44-.44-.44-2.5.22v-.44l-6.76,4.48L325-43v-.15Zm-.22-3.16c0-.44.29-.73.88-.88h.22c0,1-.37,1.55-1.1,1.55Zm74.25,120.6-4.7.66v.44h1.54C397.89,75.26,398.92,74.9,398.92,74.24Z" transform="translate(665.78 168)"/><path class="cls-2" d="M613-23.29v.66a2.7,2.7,0,0,0-1.54,2.49h-.22c-.88,0-1.54,1.18-2,3.6l-.44,4.7-.29,2.06c0,.29.07.44.22.44-.29,3.6-.44,6.9-.44,9.84,0,2.72-.15,4.33-.44,4.92l.44,1.84q0,4.51-.66,13.22a7.32,7.32,0,0,1,.44,2.2l-.44.66c0,.15.15.22.44.22l-.66,3.6h.44c.29-.88.59-1.32.88-1.32l-.22,1.76h-.44l-.66-.22v2l.66-.22v1.77c0,.73-.22,1.1-.66,1.1v.44l.66.22a13.9,13.9,0,0,0-.66,3.82l.44,1.54-.44.22v1.1c-.74,12-1.84,17.92-3.38,17.92-3,.29-5.51.44-7.64.44l-.66-.44a.19.19,0,0,1-.22.22l-.44-.44c.29-.88.73-1.25,1.32-1.1v-.88a5.49,5.49,0,0,0-2.27-3.16v-.29L596.4,51c0-1.47-.95-2.21-2.94-2.21h-1.1c-1.17-2.13-3.45-3.6-6.75-4.48-2.43-1.91-3.6-3.52-3.6-4.7a3.1,3.1,0,0,0-2.94,1.76,6.67,6.67,0,0,1,.66,2.5,2.28,2.28,0,0,1-1.32.22,23.46,23.46,0,0,0,.44,4.48h.29c0-.88.15-1.32.44-1.32l-.44-.73V45.37a1,1,0,0,1,1.1,1.11l-.44.66c.44,0,.81.44,1,1.32a10.55,10.55,0,0,1,.08,3.82c-.3,2.71-.52,5.36-.59,7.93A45.72,45.72,0,0,1,580,65.5l.22.66c-.15.59-.37.88-.66.88l.22.66c0,1.62-.15,2.64-.44,2.94a.39.39,0,0,0,.44.44l-.44,6.53.22,4.7-.37,1.4c.3.29.44.51.44.66h-.44l.44.66c.15,1.76.22,4,.22,6.76a11.82,11.82,0,0,1-.22,3.16l.22.66-.44,2.49c.3,0,.44.3.44.89,0,.29-.07.44-.22.44l.22.44v.44l-.22.66c.59,0,.89,1.25.89,3.82l-.45,2.5c1.18,0,1.77.14,1.77.44q0,1.32-.66,1.32c.29.29.58,1.39.88,3.38-.15,1.61-.44,2.64-.88,2.93.44.74.73,1.11.88,1.11-.3,1.46-.44,2.35-.44,2.49l.44,3.6c-.74,0-1.69.66-2.94,2v2.06a7.65,7.65,0,0,0-1.76,1.54l-2.72,2.72a.89.89,0,0,1-.66.22,2.4,2.4,0,0,0-1.1-.22V127.7c-.44,0-.66-.07-.66-.22a9.74,9.74,0,0,1,1.76-2.72c0-.58-.66-.88-2-.88a1.3,1.3,0,0,0,.22-.88,2.67,2.67,0,0,0-1.55-1.54,3,3,0,0,0-1.1,1.76h-.66V123a4.41,4.41,0,0,0,1.32-2.42,10.67,10.67,0,0,0-1.32.22,2.3,2.3,0,0,0-1.54.88h-.22c-2.28-2.72-3.82-4-4.7-4l-3.82.44v-1.54c.29,0,.44-.29.44-.88-1.47-1.47-2.28-2.94-2.28-4.26h-.44a4.32,4.32,0,0,1-4.26,2.5c-.44,0-.66-.08-.66-.23l.44-.66a3.25,3.25,0,0,1-.66-2.05l.66-1.32a1,1,0,0,1-.22-1.11.38.38,0,0,0,.44-.44c-.88-.14-1.32-.44-1.32-.88l.44-5.36c0-.88-.88-2.2-2.72-3.82.3,0,.45-.07.45-.22a5.17,5.17,0,0,0,2.27.66l.22-.66c-2.72-1.76-4-2.86-4-3.16a.19.19,0,0,0,.22-.22A9.65,9.65,0,0,0,552,95.75v-.44c0-1-.88-2-2.71-2.93v-.66a16.55,16.55,0,0,1,3.37.88c.59,0,1.18-1.4,1.84-4.26s1.32-7.49,2.2-13.88c0-1.62.08-2.5.22-2.5l-.22-.66c0-3,.44-4.48,1.33-4.48l-.67-.66,2-9.62v-.66c.14-.89.29-1.62.44-2.28s.29-1.1.44-1.54a1.26,1.26,0,0,1-.22-.88l.22-.89c-.15-1-.37-1.54-.66-1.54a3.3,3.3,0,0,1-1.32.44v-.66a3,3,0,0,0,1.76-.66c0-.44-.15-.66-.44-.66,0,.44-1.54.88-4.7,1.32l-5.8,3.6a8.64,8.64,0,0,0-2.5,1.32l.22.66v.22c-.29,0-.44-.07-.44-.22l-.44.22h-.44l.22-.88a23.13,23.13,0,0,1-6.47,5.36v.66h1.55c0,.89-.74,1.62-2.28,2.21H537l.22,2c-.44,0-.74.37-.88,1.11v.44l1.32,1.32v.66A3.59,3.59,0,0,0,534.49,69l-2,.66c-2.21-.29-3.31-1-3.16-2.05a6.31,6.31,0,0,1,2.72-4c0-1.77-.52-2.79-1.55-2.94,0,.29-1.17,1-3.59,2.06-2.13,0-3.16-1-3.16-3.16A16.19,16.19,0,0,1,526,56.39a1.72,1.72,0,0,1-1.24-1.1,2.9,2.9,0,0,1-.15-1.76h-.88a1.76,1.76,0,0,0-1.32.88,3.15,3.15,0,0,0,1.32.22v1.76c0,.88-1.62,1.76-4.92,2.72l-2-.44c0,.29-.22.44-.66.44a.58.58,0,0,1-.66-.66,3.59,3.59,0,0,0,1.32-2.28c2.28-2.72,3.6-4,4-4h1.77c0-.59.22-.88.66-.88a.58.58,0,0,1,.66.66l-.88.22v.44h2.27V51.25h-.66c0-.44.88-1.4,2.72-2.94a3.93,3.93,0,0,1-.66-2,1.9,1.9,0,0,0,.66-1.32l-.22-2.94h.22a3.79,3.79,0,0,1-.66-1.76c-.59,0-.88.36-.88,1.1l.44.66c-1.47,4-2.79,6.17-3.82,6.46a1,1,0,0,1-1.1-.88c0-.29.07-.44.22-.44l-.22-.66a22.46,22.46,0,0,1,.22-3.82l-.22-.66a31.4,31.4,0,0,1,.66-3.38,36.55,36.55,0,0,0-1.1-5.36l.22-.44a.58.58,0,0,1-.66-.66l.44-1.32a11.06,11.06,0,0,1-.66-3.16.87.87,0,0,0,.88-.66V23.71c0-5.51-1.1-8.3-3.38-8.3a11.31,11.31,0,0,0-4.92-1.76l-3.6-2.28a28.3,28.3,0,0,1-9.62-2.2h-.22l.22,4.26-.22.66.22.66c0,.44-.07.66-.22.66l.22,2.2a10.4,10.4,0,0,1-.22,2.94.19.19,0,0,0,.22.22l-.44,4.48a.19.19,0,0,0,.22.22,25.3,25.3,0,0,0-.88,5.58c.29,3.6.44,5.73.44,6.54l-.44.66c0,.15.14.22.44.22a13.9,13.9,0,0,0-.66,3.82l.44,5.58-.44.44a.39.39,0,0,0,.44.44l-1.32,8.74.44.66-.44,2.06,1.1.44c0,2.13-.15,3.16-.44,3.16l.44,1.76c-.3,2.13-.52,3.16-.66,3.16s.14.22.44.22l-.66,3.6h1.1A2.88,2.88,0,0,1,497.26,75l.44,7.2-4,.66c0-.29-.66-.66-2-1.1,0-.44-.66-1.84-2.05-4.26L489,76c.29,0,.44-.07.44-.22l.66.22h.88c.59,0,.88-.22.88-.66-.73-1-1.25-1.54-1.54-1.54s-1,.73-2,2.27l-2.5.22a5.79,5.79,0,0,1-2-2.71,1.9,1.9,0,0,1-1.11-2,15.16,15.16,0,0,0,.22-2.94h-.44c-1,0-1.69,1.25-2,3.82h-1.1L476,68.87c0-.88.15-1.32.44-1.32L476.25,66c0-1.91.22-2.94.66-2.94l-.22-.66a7.92,7.92,0,0,1,1.54-4.48v-1.1c-1.32-5.95-2.57-9-3.59-9v-.66a12.66,12.66,0,0,1,3.59.88l.22-.66-.22-2.5C480,44.2,481,43.17,481,41.77v-2.2a9.27,9.27,0,0,0,.88-2.94,5.06,5.06,0,0,1-.22-1.54c.88,0,1.4-2.86,1.54-8.52,0-.14-.14-.22-.44-.22a28.67,28.67,0,0,0,.89-6,61.77,61.77,0,0,1-.23-6.24h.23l-.23-.66.23-2.21.22-.44a.59.59,0,0,1-.67-.66l.45-2.72h-.67a8.34,8.34,0,0,0-1.54,3.6l-3.16,3.82.44.66v.22a3.66,3.66,0,0,0-2.05,3.38c-2.21,2.2-3.38,3.53-3.38,3.82a34.37,34.37,0,0,1-3,4.63A3.53,3.53,0,0,1,467.66,29c0,.58-.81,1.83-2.5,3.81-.88,1.77-3.3,4-7.2,6.47-.44,0-.88.51-1.32,1.54l-6.24,3.6c0,.29-1,1.17-2.94,2.72-.59.88-2,1.83-4.26,2.93h-.66l.66-.88H443c0,.3-.44.59-1.32.88v-.66c.44,0,1-.58,1.76-1.76v-.22h-.88c.44-1.32,1.76-2.86,4-4.48a32.73,32.73,0,0,1,3.6-3.6l6.24-6.24a34.68,34.68,0,0,1,2.28-2.72c1.17-1.32,2.94-3.08,5.14-5.14,8.67-11.38,14.47-19.83,17.48-25.34l-.22-.66v-1.1c0-.44.95-.88,2.94-1.32.44-1.18,2.57-4.78,6.24-10.8l3.16-5.8v-.66c-.3,0-.88.66-1.77,1.91s-1.54,2.28-2.05,3a12.4,12.4,0,0,0-3.16,5.36,60.07,60.07,0,0,0-8.52,11.68c-1.17,1.17-5.36,7.27-12.56,18.14A86,86,0,0,1,453,32.45c0,.73-1.61,2.35-4.92,4.7a65.73,65.73,0,0,1-5.58,4.92c-.15.59-1.47,1.39-4,2.5-1.17,2.13-3.38,4-6.46,5.58h-1.1c3.74-4.63,6-7.27,7-7.86.89,0,2.5-1.25,4.7-3.82.59-1,1.11-1.54,1.55-1.54.88-.44,2-1.69,3.6-3.82,1.61-1.47,2.71-2.28,3.15-2.28v-.44l-.22-.66a15.49,15.49,0,0,0,4.48-3.82l-.44-.88a3.47,3.47,0,0,1,1.32-.44c-.44-1-.88-1.54-1.32-1.54,0-.74.22-1.1.66-1.1.59,1.61,1.11,2.49,1.55,2.49a3.9,3.9,0,0,1,1.32-2.27h-1.1c0-.3.51-.67,1.54-1.11v.44c.44,0,.66-.14.66-.44-1.47-.58-2.2-1.1-2.2-1.54a3.57,3.57,0,0,1,1.54-.44l-.44-.44a.39.39,0,0,1,.44-.44l.88.44v.22l-.44.88a3,3,0,0,0,2.5-1.32h-.44c0,.29-.08.44-.22.44V18.2l3.15-4h-.22c-.73.73-1.32,1.32-1.76,1.69s-.73.66-.88.81l-.22-.66c.29-1.33,1.76-3.38,4.48-6l.44.22V9.53h-.44V9.31c1-2.2,2.13-3.38,3.16-3.38l-.22-.44A11.64,11.64,0,0,1,471.4,1V2.12c0,.44-.29.66-.88.66,0,.88.15,1.32.44,1.32a9.7,9.7,0,0,0,2.21-1.76.2.2,0,0,1-.22-.22c.29,0,.73-.52,1.32-1.55l.44.22V-.31l-.66-.22c.14-.73.44-1,.88-.88a1.81,1.81,0,0,0,1.1.66c0-1-.15-1.54-.44-1.54l-1.32.22v-.66C475-4,477-7,480.07-11.47l2.72-.44c0-.3.22-.44.66-.44V-13h-.66a2.39,2.39,0,0,1-1.77.66V-13c.45,0,1-.37,1.55-1a8.92,8.92,0,0,0,1.54-3h.44l-.22-.44a7.67,7.67,0,0,0,1.76-4c.74,0,1.32-.74,1.76-2.21h.45c.73,0,1.1-.51,1.1-1.54h-.66c-5.51,4.63-8.89,7.42-10.07,8.3a20.3,20.3,0,0,0-2.05,1.54c-1.1.88-2.79,2.21-5.14,3.82-.3,0-3.6,2.35-9.84,7a18.63,18.63,0,0,0-5.14,6.76c-.3,0-1.11,1.69-2.5,5.14l-2.72,3.6h-.88l-.66-3.38c.15-.59.37-.88.66-.88L450,5.71l.44-1.54a2.2,2.2,0,0,1-1-.36,5.05,5.05,0,0,0-1.47-.59c0,.14-1.25.88-3.82,2.2h-.44q-.43,0-1.32-1.32a31.87,31.87,0,0,0,.22-4.26,3,3,0,0,0,1.32-.59,3.68,3.68,0,0,0,1.33-1.47l-.67-.22h-1.1c-.29,1.91-2.64,3.23-7,3.82l-.22-.66v-2c0-.74,1.24-1.76,3.81-3.16,0-1.32,1-2.5,3.16-3.38.3-.59,1.18-2.06,2.57-4.33a26.24,26.24,0,0,0,2.79-5.73l-.22-1.84a21.46,21.46,0,0,1,3.16.22c.74-.29,2.5-1.83,5.14-4.7.44,0,1.1-1.17,2.06-3.59h.66c1.76,0,2.94,1.61,3.38,4.92a.87.87,0,0,0-.44.88c3.45-1.91,5.58-3.53,6.46-4.7A68.53,68.53,0,0,1,482.2-35q0-.66,1.32-.66v1.32c3.6-2.87,5.66-4.26,6.32-4.26v.66a72.34,72.34,0,0,0-8.52,9.18,2,2,0,0,0-1.76,1.32H480a97.4,97.4,0,0,0,9-4.92l.66.22c.59-.88,1.91-1.54,4-2a30,30,0,0,0,1.25-3.6c.36-1.32.8-2.72,1.24-4l1.77-6.54-.44-2.49a5.52,5.52,0,0,1,1.76-2.5,3,3,0,0,1,1.32.22,5.15,5.15,0,0,0-.81-2.28,2.72,2.72,0,0,0-2.13-.66c0-1.17.15-1.76.44-1.76-.88-1.91-1.47-2.94-1.76-2.94h-.88L492-57.74h-1.76c0-1.17-.3-1.76-.88-1.76a4.05,4.05,0,0,1-2.57,1,21.68,21.68,0,0,0-2.79.58c-1.33,0-3.09.81-5.14,2.5-1.62,0-2.5-.22-2.5-.66l.44-1.1c0-.44-.15-.66-.44-.66l-2.5.44-.44-.66c0-.59,1.54-2.72,4.7-6.25a4.5,4.5,0,0,0,.22-1.76,12.35,12.35,0,0,0-2.42.44V-66c1.17-2.42,1.76-3.89,1.76-4.48a4.21,4.21,0,0,0-1.1-2.94l.44-1.32c-.44-2.42-2.2-5.51-5.14-9.4-.3,0-1.25-.88-2.94-2.72a20.5,20.5,0,0,1-4.7-3.37v-1.55h.88a62.09,62.09,0,0,0,7.2,1.55,7,7,0,0,0,3.16-.67c1.32.3,2,.52,2,.67a.39.39,0,0,0,.44-.44,13.49,13.49,0,0,1,8.52,2.93,6.63,6.63,0,0,1,3.23,1.69c1.1,1,2.28,2.06,3.45,3.23a14.69,14.69,0,0,1,6.54,6.76c1.47.59,3.3,2.57,5.36,5.8,0,.44,1.1,2.5,3.38,6l.22,3.38c0,1.47-1.25,4.19-3.82,8.08a6.33,6.33,0,0,1-2,.15,2.24,2.24,0,0,0-1.32.15c.29,1.46,1.39,3.15,3.37,4.92,0,.44.15.66.44.66a6.81,6.81,0,0,1,2.94-.88c1.91,0,3.82,1.17,5.58,3.59v.89l-.8.8c1.9,1,2.93,1.77,2.93,2.28a4.54,4.54,0,0,0,.22,2,1.32,1.32,0,0,0-.22.88l.44,1.11-1.76,3.59c-1,.89-1.54,1.47-1.54,1.77a4.78,4.78,0,0,0-2.72,1.32,15,15,0,0,0-2.94,3.6,14,14,0,0,0-1.54,2.49,25.43,25.43,0,0,0,6.76,2.5c.29-1.61.88-2.5,1.76-2.5L517.82-22c4.77.88,7.86,2,9.18,3.38.88,0,2.42,1.76,4.7,5.36a.2.2,0,0,1-.22.22c.29,1.76.59,2.71.88,2.71s.59-.36.88-1.1c1.91.44,2.94,1,2.94,1.54,2.28,0,6.46-2.42,12.56-7.19v.88l-4.26,3.38c0,.29.07.44.22.44,3.6-2.28,5.51-3.89,5.8-4.92a63.35,63.35,0,0,0,13.22-9.4v-1.1l-.66-1.33c.59-.14.88-.8.88-2l-.88-.44c0-.59.22-.89.66-.89l-.44-1.76.66-1.32c-.59,0-.88-.15-.88-.44l1.54-1.32h-1.54c0-.59.07-1,.22-1.1a8.9,8.9,0,0,1-.44-3.16c0-.15.15-.22.44-.22a29.67,29.67,0,0,1-1.54-7.64h.44A49.27,49.27,0,0,0,558.8-64.2l.22-3.6c-.29,0-.44-.22-.44-.66l.44-1.32a36.61,36.61,0,0,1-3.6-8.08c-2.28-1.77-3.3-3.6-3.16-5.36l.88-.22c.89,0,2.65,1,5.15,3.15v.22h1.32c0-.44.07-.66.22-.66a8.23,8.23,0,0,1-.44-2.71c.29,0,1.32.14,3.15.44l.67-.22c1,.44,3.59,3,7.63,7.63.88,0,2.43,1,4.48,3.16l-.44.88c1.62,0,3.38,2.57,5.14,7.64a1.8,1.8,0,0,0,1.11.66v1.32l-.22.67c1.17,0,2.35,2,3.37,6V-55c0,.59.81,1.83,2.5,3.82l.44,2q0,.66-1.32,1.32c-.74,0-1.1-.22-1.1-.66l.22-1.76a3.75,3.75,0,0,1-2.06.44,2.28,2.28,0,0,0-1.32-.22l-.66.66.66,1.32c-.44,1-1,1.54-1.76,1.54l-.22-1.32h-.52c0,.88.15,1.32.44,1.32-.44,5.37-.66,8.82-.66,10.29L578.7-34c.15.15.22,1.62.22,4.48,1.77-1.76,3.31-2.42,4.48-1.76a2,2,0,0,1,1.1,1.54v.44c0,.15-1.61,1-4.92,2.72a6.4,6.4,0,0,0-1.1,3.38c.3.59.59,3.67.88,9.18a2.77,2.77,0,0,0-.88,2,2.56,2.56,0,0,0,.44,1.76l-.44,1.77c0,.73.44,1.1,1.32,1.1v.66l-1.32,1.32V-5h.66c2.87-1.32,4.26-2.35,4.26-2.94a12.1,12.1,0,0,1-2.93.45c1.17-1.33,2.2-2.06,3.15-2.06l.88.44c.74-2.13,1.4-3.16,2.06-3.16h.66l.66-1.54c-.29,0-.44-.22-.44-.66V-15.8c.3-.59.52-.89.66-.89l-.22-1.54a27.76,27.76,0,0,1,.22-4.26c-.44,0-.73-.73-.88-2.2h.22l-.22-.88a9.29,9.29,0,0,1,.44-2.72c-.59-.29-1.17-2.35-1.76-6-1.47-4.63-2.5-7.27-2.94-7.86v-1.1l2.28.44,2.5-.22.88.22,2.27-.22a3.88,3.88,0,0,1,2.72,1.54l2.72-.66a21.76,21.76,0,0,1,6.46,4.7,42,42,0,0,0,4.7,4c0,2.57.81,3.82,2.5,3.82,1,.59,1.76,2.42,2.2,5.36l-.44.88c.29,0,.44.08.44.22l.66-.22H613ZM434.32,54.55H435a4.68,4.68,0,0,1-1.77,2.5v-.66A3,3,0,0,1,434.32,54.55Zm4.48-3.15h-1.11c0-.59.88-1.4,2.72-2.5h.22v.66C439.38,49.78,438.8,50.37,438.8,51.4Zm1.17-.89h.88a1.61,1.61,0,0,1-1.76,1.55A2.83,2.83,0,0,0,440,50.51Zm4-16.37a1.28,1.28,0,0,0-.89-.22,2,2,0,0,1,1.33-1.55h.44A2.54,2.54,0,0,0,443.94,34.14Zm6.75-7.2-.22-.66c0-.44.37-.88,1.1-1.32h.22a2.41,2.41,0,0,1-.88,1.54l.66.44.89-.66v1.1q-1.11,0-1.11.66l-.88-.44C450.47,27.16,450.55,26.94,450.69,26.94Zm9.4-11.16L461,16c0,.29-.22.44-.66.44h-.22Zm6.76-5.22a9.48,9.48,0,0,1-1.54-.44c.29.74.59,1.1.88,1.1S466.85,11,466.85,10.56Zm1.1-1.1a2.4,2.4,0,0,1-1.1-.22h-.44v.22l1.1.44H468Zm1.84-4.26a1.81,1.81,0,0,0,.66-1.1h-1.32l.44.66V5a1.9,1.9,0,0,0-.66,1.32h-.44L468,5.86V6.3a1.32,1.32,0,0,1,.22.88,1,1,0,0,1-1.11.66c0,.45.37.89,1.11,1.33l.22-.66c-.15,0-.22-.15-.22-.45.29,0,.58-.58.88-1.76l1.1-.44ZM471.33.28h-.22c.73-1.18,1.32-1.84,1.76-1.84h.22l.22.66c0,.15-.07.23-.22.23l-.44-.23C472.65-.09,472.21.28,471.33.28Zm6.46-4.92a.78.78,0,0,0-.88-.88v.22c.3,0,.44.07.44.22a2,2,0,0,0-1.54,1.32h1.1A.78.78,0,0,0,477.79-4.64Zm1.84-4h-.44q-1.32.88-1.32,1.32l.44.22c0-.59.44-.88,1.32-.88Zm1.76-2.94h-.88l-2,2v.29h.66V-10h.66v.66h.66A6,6,0,0,0,481.39-11.62Zm2.72-4h-.66l-.22.88h.22Zm31.36,11.9a52.62,52.62,0,0,0-2.79-9.33,13.3,13.3,0,0,0-3.45-4.84,19.17,19.17,0,0,0-4.92-4h-.22a95.17,95.17,0,0,1-9.63,12.56c0,.88-.88,2.2-2.71,3.81a49.37,49.37,0,0,1-4.48,6V.87a.58.58,0,0,1,.66.66c.14.15,1-.44,2.72-1.76a24.1,24.1,0,0,1,5.58,3.37h.88l1.54-.44V2.48h-2.28V1.82h.89l.66.22a.58.58,0,0,1,.66-.66l2.93.22a18.08,18.08,0,0,0,9-3.82l-.88-2,1.55-.88c1,0,2.49.66,4.26,2.05v-.66ZM489-23.74a1,1,0,0,0-1.1.67H489Zm13,26L501.15,2v.44c.14,0,.44.22.88.66Zm21.08-.66a47.76,47.76,0,0,0-2-11.68h-.44V-9a13,13,0,0,1,.88,4.48h-.44a12.41,12.41,0,0,1,.44,3.82h-.22C521.34.13,521.93.87,523.11,1.6Zm4.48,21.08c0-.73.07-1.1.22-1.1l-1.1-6.24h-.45c0,1-.07,1.54-.22,1.54l.89,6.46a1.72,1.72,0,0,0-.22,1.1.79.79,0,0,0,.58.22.88.88,0,0,1,.59.22l-.22-1.54h.22Zm6.75-18.36h-.88v.22l.66,1.54h.22Zm6.25,13-.22-.88-.67.44h-.44a13.62,13.62,0,0,1,.81-3.82c.37-.88.81-1.32,1.25-1.32-.73-3.16-1.39-4.7-2-4.7-.3,0-1.18,1.1-2.72,3.38l-1.32.22V12c0,1.76.44,2.71,1.32,2.71l-.22,3.6h.88c.15-1.17.66-1.76,1.54-1.76v.88l-.88.88H539A2.29,2.29,0,0,1,540.59,17.32Zm-2-26.44.88-.22v-.22H539ZM561.44,20l.66-3.16h-.66a119.88,119.88,0,0,0-17.92,12.34c-1,2.71-1.83,4-2.49,4a.2.2,0,0,0,.22.22,4,4,0,0,1-1.55,2.93v.22l2.94-1.83a5.07,5.07,0,0,0,1.1,3.6,28.75,28.75,0,0,0,9-2.72.2.2,0,0,1,.22-.22l.67.22c1.9-.74,3.08-1.32,3.37-1.76l1.11.44.66-1.1h1.83c.44-5.07,1-7.79,1.54-8.08l-.66-.44c0-2.72.22-4,.66-4ZM540.15-9.78l.88-.44v-.22h-.66ZM565-8.68c0-.29-.44-.44-1.32-.44v-2.5l.44-.44h-.66q0,.88-12.56,10.8c-1.47,1.91-2.2,3.45-2.2,4.48h-.66v.66H549v.66c-2.43,2.28-3.75,4.55-4,7-.29,0-.66.51-1.1,1.54s-.81,1.83-1.1,2.5h.22a1,1,0,0,0,1.1-1.11l.66.44a1.8,1.8,0,0,1-.44-1.32h.44l.88.66a.58.58,0,0,0,.66-.66.65.65,0,0,1-.15-.66,3.38,3.38,0,0,0,.15-.88l.88-.22V12l-.22.88h.44a9.37,9.37,0,0,0,2.28-1.54H549a1,1,0,0,1,1.1-1.1v.66h.66l-.22-1.54c1.18-.74,1.76-1.4,1.76-2h.66l.22,1.11c0,.73-.58,1.1-1.76,1.1v.66h.44a30.48,30.48,0,0,0,6-3.6V6a4,4,0,0,1-2.93,1.1l-.44-.44c0-.59,1.24-1.18,3.82-1.76h.88c0-.88.22-1.33.66-1.33h.88V4.91h-.44v.22A6.75,6.75,0,0,0,563,3.58l-.44-1.1c.44-1,.73-1.54.88-1.54l-.22-.66c.44-1.47.58-2.13.44-2l-.22-2c0-.29.07-.44.22-.44l-.22-.66c.29-.73.51-1.1.66-1.1a3.3,3.3,0,0,1-.44-1.32C564.6-7.58,565-7.95,565-8.68ZM546.9,55.88V54.11q.66.22.66.66Q547.56,55.88,546.9,55.88Zm1.32-1.77.22-.88a7.2,7.2,0,0,1,3.16-1.54v.22A4.07,4.07,0,0,1,548.22,54.11ZM555,51H552.7v-.89a14.16,14.16,0,0,1,4.7-1.1v1.1a3.75,3.75,0,0,1-1.54-.22C555.72,50.59,555.42,51,555,51Zm-1.17-71.1h-.22c0-.58.22-.88.66-.88h.22C554.47-20.43,554.25-20.14,553.81-20.14Zm0,26.66h.66c0,1-.22,1.54-.66,1.54ZM557.4-16.1a3.24,3.24,0,0,0-.66,2,47.69,47.69,0,0,0,5.07-3.24c1.25-.95,1.91-1.76,1.91-2.35a12.71,12.71,0,0,1,.22-2.71h-.22A26.85,26.85,0,0,0,559-17,2.2,2.2,0,0,0,557.4-16.1Zm11,140.35,1.54-.44v.66a3.88,3.88,0,0,0-.66,1.54,14.44,14.44,0,0,0-2.5.22q-.66-.21-.66-1.32c0-.44.74-.81,2.28-1.1v.44ZM570.18-23a1.32,1.32,0,0,1-.22-.88l-.44-.22v.66Zm1.33-57a2.47,2.47,0,0,0-1.11-.22v-1.32a1.24,1.24,0,0,0,.59-.22,4.54,4.54,0,0,1,1.25-.45c-.15.89.15,1.33.88,1.33V-80c-.59,0-.88-.08-.88-.22Zm1,70.87h-1.32v.22a3,3,0,0,1,1.32.22Zm0-78.07h-.66v-1.1h.66ZM576.94-6.7a9,9,0,0,1-.22-2.2h-.22v1.76Zm.22-73.95-.22-.66.66-.22.22.66ZM585.9,6.08l.44-.66-.44-1.1c-4.63.88-7,2.94-7,6l.22,2.28-.44,1.1a1.32,1.32,0,0,0,.22.88l-.44,4,.22.66L578,22.9h1.32a14.93,14.93,0,0,0,3.6-2.72h-1.1V19.3h.22c1.32,0,2.42-1.25,3.16-3.82l-.44-.88h.44a.39.39,0,0,0-.44-.44c.44-3,1-4.48,1.54-4.48l-.66-1.54q.66,0,.66-1.32Zm-7,46.64a.58.58,0,0,0,.66.66c0-.3.08-.44.22-.44-.29-1.62-.58-2.43-.88-2.43Zm0,5.14h.44A7.39,7.39,0,0,1,580,54.7c-.44-.73-.73-1.1-.88-1.1Zm0,1.61h.44V58.15h-.44Zm29.38-37h.88v2.28c0,.44-.29.66-.88.66h-.22Zm.88-4h.44v1.32c0,.44-.29.66-.88.66A5.81,5.81,0,0,1,609.18,18.42Zm.44-2.64.22,1.54-.66.22V15.78Zm.22-5.44h.44v2.28h-.44Z" transform="translate(665.78 168)"/></svg>